<?xml version="1.0" encoding="utf-8"?>
<!-- Generator: Adobe Illustrator 16.0.0, SVG Export Plug-In . SVG Version: 6.00 Build 0)  -->
<!DOCTYPE svg PUBLIC "-//W3C//DTD SVG 1.1//EN" "http://www.w3.org/Graphics/SVG/1.1/DTD/svg11.dtd">
<svg version="1.1" id="Layer_1" xmlns="http://www.w3.org/2000/svg" xmlns:xlink="http://www.w3.org/1999/xlink" x="0px" y="0px"
	 width="56.711px" height="43.785px" viewBox="0 0 56.711 43.785" enable-background="new 0 0 56.711 43.785" xml:space="preserve">
<g>
	<path fill="#FFFFFF" d="M39.063,22.387c-0.109-0.104-0.205-0.146-0.291-0.182c-0.843-0.351-1.757,2.548-1.757,2.548
		c-0.217,0.734,0.22,0.713,0.22,0.713c0.397,0.025,0.985-0.64,1.098-0.814c0.117-0.176,0.288-0.718,0.288-0.718
		c0.13-0.443,0.287-0.908,0.458-1.379h-0.002C39.12,22.442,39.074,22.399,39.063,22.387z"/>
	<path fill="#FFFFFF" d="M29.28,24.571c0.013-0.128-0.069-0.151-0.141-0.123c-0.071,0.03-0.153,0.104-0.153,0.104
		c-0.821,0.75-1.387,2.459-1.429,2.587c0,0-0.01,0.023,0.007,0.034c0.006,0.005,0.019,0.005,0.039-0.013c0,0,0,0-0.002,0
		C29.181,25.799,29.28,24.571,29.28,24.571z"/>
	<path fill="#FFFFFF" d="M23.187,25.042c-0.171,0.03-0.233,0.307-0.233,0.307c-0.154,0.643,0.267,0.906,0.267,0.906
		c0.04,0.023,0.073,0.041,0.107,0.058c0.011,0.005,0.065,0.02,0.084-0.049c0.148-0.569,0.121-0.824,0.121-0.824
		C23.481,25.003,23.187,25.042,23.187,25.042z"/>
	<path fill="#FFFFFF" d="M42.74,21.565c-0.046-0.065-0.082,0.025-0.082,0.025l0,0c-0.381,1.021-0.725,1.638-0.843,1.839
		c0,0-0.046,0.08-0.016,0.146c0.26,0.572,1.035,0.397,1.035,0.397c0.817-0.24,0.648-1.055,0.648-1.055
		C43.391,22.555,43.008,21.954,42.74,21.565z"/>
	<path fill="#FFFFFF" d="M46.259,23.333c-0.05,0-0.085,0.006-0.104,0.011v0.227h0.089c0.102,0,0.184-0.034,0.184-0.116
		C46.427,23.38,46.375,23.333,46.259,23.333z"/>
	<path fill="#FFFFFF" d="M46.277,22.97h-0.006c-0.344,0-0.609,0.285-0.609,0.636c0,0.354,0.266,0.633,0.62,0.633
		c0.344,0.007,0.605-0.279,0.605-0.629C46.888,23.255,46.626,22.97,46.277,22.97z M46.466,24.016
		c-0.026-0.028-0.039-0.095-0.062-0.192c-0.016-0.084-0.062-0.123-0.164-0.123H46.15v0.315h-0.184v-0.795
		c0.073-0.009,0.173-0.022,0.305-0.022c0.151,0,0.218,0.022,0.272,0.061c0.047,0.035,0.082,0.096,0.082,0.171
		c0,0.098-0.073,0.16-0.167,0.188v0.011c0.08,0.023,0.119,0.089,0.143,0.194c0.024,0.119,0.044,0.164,0.059,0.192H46.466z"/>
	<path fill="#FFFFFF" d="M54.957,34.908V9.177c0-1.491-1.357-1.967-1.357-1.967L30.08,1.52c-1.79-0.373-3.297,0-3.297,0L3.593,7.227
		L3.124,7.341c0,0-1.275,0.446-1.352,1.833c-0.015,0.159-0.01,0.258-0.01,0.258L1.754,34.536c0,1.967,1.568,2.236,1.568,2.236
		l23.495,5.522c1.56,0.305,3.263,0,3.263,0l23.282-5.522C54.991,36.468,54.957,34.908,54.957,34.908z M36.581,5.169
		c0,0.004,0,0.007,0.002,0.012C36.581,5.176,36.581,5.173,36.581,5.169L36.581,5.169z M35.703,14.246L35.703,14.246l0.705-4.653
		c0-0.003,0.032-0.181,0.186-0.181h1.83c0.158,0,0.187,0.179,0.187,0.179l0.722,4.243c0.032,0.187-0.153,0.208-0.153,0.208l0,0
		c-0.383,0.037-0.761,0.073-1.133,0.112l0,0c-0.151,0.015-0.184-0.139-0.184-0.139l0,0l-0.059-0.389
		c-0.084-0.542-0.168-1.283-0.244-2.135l0,0c-0.013-0.137-0.039-0.138-0.041-0.138c-0.025,0-0.034,0.07-0.039,0.11
		c-0.077,1.045-0.121,1.436-0.209,2.164l-0.061,0.451c-0.021,0.163-0.176,0.186-0.176,0.186l0,0
		c-0.399,0.045-0.795,0.091-1.184,0.137l0,0C35.68,14.42,35.703,14.246,35.703,14.246z M33.123,9.582
		c0.007-0.039,0.034-0.169,0.177-0.169V9.412h1.304v0.001c0.146,0,0.173,0.133,0.177,0.17v4.723c0,0.231-0.175,0.25-0.175,0.25
		v0.001c-0.452,0.059-0.895,0.12-1.331,0.182l0,0c-0.145,0.021-0.151-0.144-0.151-0.144V9.582z M27.64,9.591
		c0,0,0.006-0.173,0.183-0.179h1.964c1.338,0,1.885,0.136,2.245,0.589c0.387,0.469,0.488,1.057,0.488,2.9v1.791
		c0,0.154-0.15,0.178-0.15,0.178l0,0c-0.456,0.069-0.906,0.139-1.343,0.212v-0.001c-0.151,0.024-0.162-0.165-0.162-0.165v-2.574
		c0-1.329-0.201-1.602-1.165-1.602h-0.255c-0.151,0-0.149,0.172-0.149,0.172v4.281c0,0.19-0.17,0.216-0.17,0.216v0.001
		c-0.45,0.081-0.887,0.164-1.313,0.249l0,0c-0.163,0.032-0.172-0.174-0.172-0.174V9.591z M22.645,9.591c0,0,0.001-0.171,0.177-0.179
		h4.077c0,0,0.194,0.004,0.194,0.179v1.263c0,0.173-0.194,0.173-0.194,0.173h-2.428c-0.174,0-0.171,0.18-0.171,0.18v2.212
		c0,0,0,0.16,0.164,0.16h2.266c0,0,0.206,0.006,0.206,0.196v1.075c0,0.192-0.206,0.194-0.206,0.194h-2.266
		c-0.162,0-0.164,0.153-0.164,0.153v1.045c0,0.185-0.17,0.23-0.17,0.23l0,0c-0.455,0.112-0.894,0.224-1.317,0.337l0,0
		c-0.164,0.043-0.167-0.149-0.167-0.149V9.591z M15.115,9.591c0,0,0.007-0.179,0.179-0.179l0,0h2.216c0,0,0.153,0,0.182,0.179
		l0.504,3.173c0.107,0.646,0.189,1.306,0.281,2.258l0,0c0.003,0.036,0.006,0.072,0.01,0.108c0.006,0.037,0.015,0.054,0.025-0.016
		c0.003-0.03,0.007-0.062,0.011-0.091c0-0.001,0-0.001,0-0.001c0.11-1.026,0.158-1.423,0.292-2.258l0.505-3.173
		c0-0.002,0.03-0.179,0.189-0.179h2.239c0,0,0.177,0.003,0.177,0.179v7.264c0,0.208-0.193,0.252-0.193,0.252l0,0
		c-0.405,0.116-0.795,0.23-1.17,0.345l0,0c-0.216,0.065-0.22-0.193-0.22-0.193v-3.014c0-0.452,0.02-1.322,0.045-2.068
		c-0.002,0-0.004,0-0.004,0s0.013-0.19-0.035-0.193c0,0-0.062-0.015-0.08,0.178l-0.001-0.002c-0.137,0.805-0.235,1.388-0.342,1.979
		l-0.613,3.502c-0.039,0.222-0.226,0.284-0.226,0.284h-0.001c-0.349,0.118-0.683,0.234-1.001,0.349l0,0
		c-0.222,0.08-0.285-0.179-0.285-0.182l-0.709-4.089c-0.057-0.393-0.13-0.786-0.202-1.178l-0.116-0.695
		c-0.003-0.021-0.006-0.04-0.01-0.061c-0.025-0.096-0.063-0.087-0.063-0.087c-0.04,0.002-0.038,0.128-0.036,0.174l0.001,0.016
		c0,0.001,0,0.003,0,0.003l0.007,0.181c0.015,0.333,0.029,1.118,0.029,1.646v4.502c0,0.294-0.236,0.391-0.236,0.391h0.001
		c-0.405,0.167-0.777,0.324-1.113,0.475l0,0c-0.229,0.102-0.235-0.201-0.235-0.201V9.591z M18.23,36.816
		c0.004,0.478-0.263,0.476-0.263,0.476c-1.187,0.023-1.89-0.671-1.89-0.671c-0.458-0.396-0.339-1.188-0.339-1.188
		c0.406-2.812,1.89-6.245,1.89-6.245c1.573-3.912,4.113-7.843,4.845-8.942c0.025-0.037,0.048-0.072,0.025-0.106
		c-0.016-0.022-0.044-0.018-0.062-0.013c-6.916,2.667-8.996,4.985-8.996,4.985c-0.346,0.319-0.553,0.1-0.655-0.196
		c-0.075-0.217-0.074-0.48-0.074-0.48c-0.003-1.318,0.452-2.117,0.71-2.605c0.259-0.484,0.859-0.862,0.859-0.862
		c8.333-4.536,24.581-6.179,24.581-6.179c0.637-0.066,0.804,0.047,0.804,0.047c0.259,0.162,0.421,0.365,0.421,0.365
		c0.154,0.233-0.253,0.302-0.253,0.302c-7.576,1.253-13.504,3.116-15.294,3.852c-0.111,0.045-0.192,0.145-0.213,0.173
		c-2.533,3.929-4.9,10.58-4.9,10.58C18.179,33.736,18.23,36.816,18.23,36.816z M44.62,23.994c-0.354,0.994-1.75,1.247-1.75,1.247
		c-1.09,0.198-1.562-0.476-1.678-0.677c-0.028-0.054-0.077,0-0.077,0l0,0c-0.725,0.839-1.137,1.251-1.137,1.251
		c-0.534,0.491-0.986,0.515-0.986,0.515c-0.346,0.021-0.51-0.257-0.568-0.404l0,0c-0.032-0.104-0.123,0-0.123,0l0,0
		c-1.141,1.174-1.899,1.158-1.899,1.158c-0.354-0.013-0.517-0.259-0.609-0.576l0,0c-0.03-0.089-0.082-0.035-0.102-0.009
		c-0.002,0.004-0.007,0.009-0.009,0.013v0.002c-0.378,0.532-0.775,0.917-0.775,0.917c-0.568,0.527-1.072,0.403-1.072,0.403
		c-0.396-0.061-0.521-0.296-0.549-0.339c-0.454-0.705,1.078-3.784,1.078-3.784c0.128-0.266,0.073-0.344,0.073-0.344
		c-0.241-0.121-1.076,0.579-1.076,0.579c-0.533,0.469-0.812,0.908-1.071,1.584c-0.05,0.132-0.065,0.217-0.065,0.217
		c-0.309,1.32-0.592,2.368-0.592,2.368c-0.112,0.399-0.419,0.609-0.419,0.609C30.449,29.265,30,29.177,30,29.177
		c-0.231-0.048-0.041-0.461-0.041-0.461c0.278-0.665,0.51-1.356,0.718-1.999c0.091-0.272-0.067-0.009-0.067-0.009l0,0
		c-1.096,1.815-2.471,3.1-2.471,3.1c-0.567,0.515-1.307,0.274-1.348,0.259c-0.265-0.066-0.446-0.319-0.53-0.562h-0.001
		c-0.025-0.064-0.083,0.007-0.083,0.007c-0.661,0.849-1.377,1.495-1.377,1.495c-0.413,0.378-0.831,0.387-0.831,0.387
		c-0.526,0.011-0.497-0.77-0.497-0.77c0.081-1.359,1.18-3.034,1.18-3.034c0.054-0.077-0.012-0.157-0.012-0.157
		c-0.032-0.041-0.104-0.03-0.104-0.03c-0.249,0.054-0.466,0.08-0.654,0.086l0,0c-0.091,0.007-0.133,0.11-0.133,0.11l0,0
		c-1.326,3.467-2.608,4.433-2.608,4.433c-0.396,0.328-0.695,0.287-0.695,0.287c-0.953-0.097-0.851-1.02-0.851-1.02
		c0.002-0.221,0.239-0.288,0.239-0.288c1.888-0.693,3.009-3.232,3.009-3.232c0.04-0.087,0.077-0.169,0.113-0.251
		c0.065-0.155-0.036-0.212-0.036-0.212h0.001c-1.412-0.827-0.607-2.55-0.607-2.55c0.281-0.586,0.805-0.686,0.805-0.686
		c0.396-0.107,0.695,0.05,0.695,0.05c0.848,0.356,0.387,2.191,0.387,2.191c-0.01,0.048-0.014,0.067-0.019,0.085
		c-0.004,0.036,0.003,0.066,0.05,0.066c0.58-0.054,1.016-0.358,1.016-0.358c0.195-0.13,0.283-0.028,0.354,0.069
		c0.074,0.097,0.223,0.544,0.255,0.693c0.034,0.149-0.069,0.337-0.069,0.337c-0.545,0.893-1.082,1.974-1.082,1.974
		c-0.048,0.104-0.081,0.194-0.106,0.272c-0.02,0.077-0.088,0.38,0.102,0.417c0,0,0.153,0.027,0.407-0.184
		c0,0,0.597-0.515,0.94-0.906c0,0,0.077-0.075,0.083-0.223l0,0c0.023-1.147,0.536-2.349,0.536-2.349
		c1.011-2.188,2.219-2.479,2.219-2.479c0.521-0.2,0.903,0,0.903,0c0.294,0.135,0.303,0.474,0.303,0.474
		c-0.009,1.106-0.748,2.189-0.748,2.189c-0.631,0.966-1.344,1.541-1.674,1.813c0,0-0.052,0.045-0.032,0.105
		c0.082,0.235,0.171,0.296,0.171,0.296c0.234,0.167,0.725-0.363,0.725-0.363c1.412-1.437,2.579-3.674,2.973-4.492
		c0.099-0.206,0.114-0.288,0.116-0.29c0.043-0.162,0.073-0.465,0.073-0.465c0.018-0.298,0.878-0.579,0.878-0.579
		c0.445-0.116,0.294,0.605,0.294,0.605c-0.041,0.194-0.037,0.157-0.096,0.406l-0.023,0.097c0,0-0.034,0.141,0.023,0.055
		c0.47-0.661,1.106-1.169,1.106-1.169c0.826-0.614,1.34-0.279,1.34-0.279c0.621,0.324,0.009,1.721,0.009,1.721
		c-0.438,1.074-0.618,1.688-0.618,1.688c-0.239,0.754,0.059,0.78,0.059,0.78c0.272,0.05,0.768-0.536,0.99-0.83
		c0.064-0.084,0.075-0.205,0.075-0.205h0.002c0.046-0.476,0.139-0.86,0.139-0.86c0.776-2.796,2.483-3.334,2.483-3.334
		c0.49-0.165,0.907,0.024,1.11,0.201l0,0c0,0,0.067,0.059,0.106-0.041l0,0c1.176-2.919,2.664-5.775,2.664-5.775
		c0.228-0.43,0.532-0.583,0.532-0.583c1.106-0.6,1.688-0.198,1.688-0.198c0.246,0.127-0.328,0.787-0.328,0.787
		c-2.271,2.507-4.562,8.84-4.562,8.84c-0.151,0.445,0.054,0.484,0.054,0.484c0.251,0.075,0.852-0.655,0.852-0.655
		c0.666-0.765,1.48-2.718,1.716-3.382c0.033-0.088,0.003-0.173,0.003-0.173v-0.002c-0.201-0.631-0.033-1.111-0.033-1.111
		c0.34-1.018,1.152-0.852,1.152-0.852c0.773,0.143,0.29,1.8,0.29,1.8c-0.065,0.209-0.018,0.335-0.018,0.335
		c0.242,0.623,0.921,2.049,0.921,2.049C44.791,23.454,44.62,23.994,44.62,23.994z M46.277,24.404c-0.455,0-0.818-0.354-0.818-0.799
		c0-0.445,0.363-0.796,0.818-0.796h0.005c0.449,0,0.809,0.351,0.809,0.796C47.091,24.05,46.731,24.404,46.277,24.404z"/>
</g>
</svg>
