<?xml version="1.0" encoding="utf-8"?>
<!-- Generator: Adobe Illustrator 17.0.0, SVG Export Plug-In . SVG Version: 6.00 Build 0)  -->
<!DOCTYPE svg PUBLIC "-//W3C//DTD SVG 1.1//EN" "http://www.w3.org/Graphics/SVG/1.1/DTD/svg11.dtd">
<svg version="1.1" id="Capa_1" xmlns="http://www.w3.org/2000/svg" xmlns:xlink="http://www.w3.org/1999/xlink" x="0px" y="0px"
	 width="247.984px" height="66px" viewBox="0 0 247.984 66" enable-background="new 0 0 247.984 66" xml:space="preserve">
<g>
	<g>
		<path fill="#FFFFFF" d="M85.984,35.762c0,0.57-0.329,0.854-0.986,0.854c-0.32,0-0.549-0.04-0.686-0.12
			c-0.28-0.165-0.42-0.41-0.42-0.735c0-0.273,0.122-0.496,0.367-0.666c0.114-0.08,0.171-0.131,0.171-0.154
			c0-0.023-0.068-0.083-0.205-0.179c-0.222-0.12-0.333-0.339-0.333-0.658c0-0.365,0.14-0.609,0.419-0.735
			c0.08-0.028,0.12-0.06,0.12-0.094c0-0.034-0.068-0.091-0.205-0.171c-0.222-0.125-0.333-0.347-0.333-0.666
			c0-0.342,0.145-0.587,0.436-0.735c0.068-0.034,0.103-0.068,0.103-0.103c0-0.028-0.063-0.083-0.188-0.162
			c-0.234-0.142-0.35-0.37-0.35-0.683c0-0.336,0.151-0.587,0.453-0.752c0.068-0.034,0.103-0.063,0.103-0.085
			c0-0.017-0.029-0.046-0.085-0.085c-0.313-0.159-0.47-0.416-0.47-0.769c0-0.336,0.134-0.57,0.402-0.701
			c0.091-0.046,0.137-0.088,0.137-0.128c-0.006-0.028-0.017-0.051-0.034-0.068l-0.222-0.137c-0.188-0.114-0.282-0.325-0.282-0.632
			c0-0.558,0.329-0.837,0.986-0.837c0.326,0,0.558,0.04,0.695,0.12c0.274,0.159,0.412,0.399,0.412,0.718
			c0,0.336-0.151,0.581-0.452,0.735c-0.058,0.034-0.087,0.068-0.087,0.103c0,0.028,0.066,0.083,0.2,0.162
			c0.226,0.137,0.339,0.37,0.339,0.701c0,0.29-0.156,0.535-0.469,0.735c-0.041,0.011-0.064,0.034-0.069,0.068
			c0,0.057,0.04,0.103,0.121,0.137c0.278,0.131,0.417,0.359,0.417,0.683c0,0.347-0.113,0.581-0.339,0.701
			c-0.133,0.074-0.2,0.134-0.2,0.179c0.006,0.028,0.017,0.051,0.035,0.068l0.165,0.085c0.226,0.125,0.339,0.353,0.339,0.683
			c0,0.279-0.101,0.496-0.304,0.649c-0.156,0.085-0.234,0.142-0.234,0.171c0,0.028,0.061,0.088,0.182,0.179
			c0.237,0.125,0.356,0.347,0.356,0.666c0,0.313-0.113,0.538-0.339,0.675c-0.133,0.085-0.2,0.14-0.2,0.162
			c0,0.034,0.006,0.057,0.017,0.068l0.269,0.179C85.9,35.298,85.984,35.489,85.984,35.762z M91.836,37.445
			c0,0.245-0.08,0.446-0.239,0.602c-0.159,0.157-0.367,0.235-0.624,0.235h-4.494c-0.262,0-0.48-0.078-0.654-0.235
			c-0.174-0.157-0.261-0.352-0.261-0.585c0-0.251,0.094-0.456,0.282-0.615c0.154-0.125,0.458-0.188,0.914-0.188h4.178
			c0.262,0,0.477,0.074,0.645,0.222C91.752,37.029,91.836,37.217,91.836,37.445z"/>
		<path fill="#FFFFFF" d="M97.945,37.428c0,0.251-0.087,0.456-0.261,0.615c-0.174,0.159-0.397,0.239-0.671,0.239h-3.622
			c-0.234,0-0.431-0.08-0.594-0.239c-0.162-0.159-0.243-0.353-0.243-0.581c0-0.205,0.073-0.39,0.218-0.555
			c0.145-0.165,0.306-0.248,0.483-0.248h1.136c0.12,0,0.188-0.011,0.205-0.034c0.017-0.023,0.026-0.048,0.026-0.077
			c0-0.04-0.057-0.103-0.169-0.188c-0.166-0.137-0.249-0.33-0.249-0.581c0-0.308,0.156-0.553,0.467-0.735
			c0.059-0.034,0.088-0.063,0.088-0.085c-0.006-0.034-0.018-0.051-0.035-0.051l-0.238-0.162c-0.188-0.103-0.282-0.31-0.282-0.624
			c0-0.33,0.144-0.575,0.432-0.735h0.035c0.047-0.034,0.071-0.066,0.071-0.094c0-0.029-0.079-0.091-0.238-0.189
			c-0.2-0.131-0.3-0.354-0.3-0.668c0-0.319,0.132-0.553,0.397-0.702c0.094-0.04,0.141-0.074,0.141-0.103
			c0-0.023-0.012-0.046-0.034-0.069l-0.214-0.146c-0.194-0.131-0.29-0.342-0.29-0.633c0-0.32,0.108-0.539,0.325-0.659
			c0.142-0.08,0.214-0.14,0.214-0.18c0-0.017-0.006-0.034-0.017-0.052l-0.214-0.12c-0.205-0.126-0.308-0.342-0.308-0.65
			c0-0.211,0.063-0.388,0.188-0.531l0.197-0.206c0.011-0.005,0.017-0.023,0.017-0.051c0-0.046-0.031-0.068-0.094-0.068h-1.153
			c-0.228,0-0.422-0.081-0.581-0.242c-0.159-0.162-0.239-0.356-0.239-0.582c0-0.232,0.081-0.429,0.244-0.591
			c0.162-0.161,0.366-0.242,0.611-0.242h3.52c0.678,0,1.017,0.272,1.017,0.816c0,0.561-0.322,0.842-0.965,0.842h-0.965
			c-0.091,0-0.137,0.023-0.137,0.068c0,0.029,0.07,0.103,0.209,0.222c0.14,0.12,0.209,0.308,0.209,0.564
			c0,0.285-0.162,0.536-0.487,0.753c-0.034,0.034-0.051,0.063-0.051,0.085c0,0.028,0.034,0.057,0.103,0.086
			c0.29,0.125,0.436,0.365,0.436,0.718c0,0.319-0.106,0.542-0.316,0.667l-0.171,0.111c-0.023,0.017-0.034,0.04-0.034,0.068
			c0,0.028,0.074,0.091,0.222,0.188c0.199,0.131,0.299,0.348,0.299,0.65c0,0.314-0.134,0.553-0.402,0.718
			c-0.085,0.046-0.131,0.08-0.137,0.103c0,0.034,0.011,0.065,0.034,0.094l0.171,0.086c0.222,0.108,0.333,0.331,0.333,0.667
			c0,0.325-0.157,0.582-0.47,0.769c-0.034,0.023-0.051,0.046-0.051,0.069c0,0.04,0.034,0.074,0.103,0.103
			c0.279,0.148,0.419,0.388,0.419,0.718c0,0.251-0.067,0.435-0.201,0.552c-0.134,0.117-0.201,0.184-0.201,0.201
			c0,0.085,0.065,0.128,0.196,0.128h1.051C97.671,36.659,97.945,36.915,97.945,37.428z"/>
		<path fill="#FFFFFF" d="M105.625,32.49c0,0.245-0.085,0.449-0.256,0.611c-0.171,0.162-0.387,0.244-0.649,0.244h-3.64
			c-0.023,0.028-0.034,0.054-0.034,0.077c0,0.006,0.006,0.017,0.018,0.034l0.214,0.204c0.125,0.119,0.187,0.29,0.187,0.511
			c0,0.341-0.153,0.585-0.458,0.732c-0.07,0.051-0.106,0.085-0.106,0.102c0,0.023,0.017,0.051,0.051,0.085l0.162,0.111
			c0.211,0.113,0.316,0.326,0.316,0.639c0,0.335-0.137,0.573-0.41,0.715c-0.091,0.051-0.137,0.094-0.137,0.128
			c0,0.034,0.034,0.068,0.103,0.102c0.296,0.13,0.444,0.369,0.444,0.715c0,0.556-0.316,0.834-0.948,0.834
			c-0.347,0-0.587-0.034-0.718-0.103c-0.279-0.154-0.419-0.393-0.419-0.718c0-0.302,0.122-0.53,0.367-0.683
			c0.125-0.08,0.188-0.131,0.188-0.154c0-0.034-0.08-0.1-0.239-0.197c-0.211-0.125-0.316-0.342-0.316-0.649
			c0-0.302,0.117-0.524,0.35-0.666l0.171-0.103c0.023-0.023,0.034-0.04,0.034-0.051c0-0.023-0.012-0.046-0.034-0.068l-0.188-0.103
			c-0.222-0.159-0.333-0.387-0.333-0.683c0-0.308,0.117-0.53,0.35-0.666c0.137-0.085,0.205-0.14,0.205-0.162
			c-0.006-0.028-0.018-0.046-0.035-0.051l-0.176-0.12c-0.229-0.154-0.344-0.376-0.344-0.666c0-0.347,0.144-0.592,0.432-0.735
			c0.082-0.04,0.123-0.074,0.123-0.103c0-0.04-0.035-0.074-0.106-0.103c-0.3-0.137-0.45-0.39-0.45-0.76
			c0-0.347,0.156-0.592,0.467-0.735c0.059-0.017,0.088-0.046,0.088-0.085c0-0.017-0.088-0.085-0.264-0.205
			c-0.194-0.131-0.291-0.342-0.291-0.632c0-0.234,0.1-0.444,0.301-0.632c0.149-0.137,0.431-0.205,0.844-0.205
			c0.649,0,0.973,0.279,0.973,0.837c0,0.302-0.165,0.558-0.496,0.769c-0.029,0.017-0.046,0.04-0.051,0.068
			c0,0.028,0.018,0.051,0.053,0.068c0.329,0.177,0.494,0.436,0.494,0.777c0,0.239-0.068,0.419-0.205,0.538l-0.214,0.196v0.034
			c0,0.028,0.01,0.05,0.03,0.064c0.02,0.014,0.078,0.021,0.175,0.021h3.358C105.286,31.67,105.625,31.943,105.625,32.49z
			 M106.48,27.449c0,0.564-0.302,0.846-0.906,0.846h-3.64c-0.256,0-0.469-0.078-0.636-0.235c-0.168-0.157-0.252-0.355-0.252-0.594
			c0-0.57,0.336-0.854,1.008-0.854h3.588C106.2,26.612,106.48,26.891,106.48,27.449z"/>
		<path fill="#FFFFFF" d="M114.117,32.439c0,0.251-0.085,0.453-0.256,0.607c-0.171,0.154-0.39,0.231-0.658,0.231h-3.306
			c-0.188,0-0.296,0.014-0.325,0.043c-0.017,0.006-0.026,0.023-0.026,0.051c0,0.028,0.04,0.068,0.12,0.12
			c0.188,0.165,0.282,0.382,0.282,0.649c0,0.313-0.123,0.538-0.367,0.675c-0.114,0.068-0.171,0.117-0.171,0.145
			c0,0.023,0.057,0.068,0.171,0.137c0.245,0.148,0.367,0.376,0.367,0.683c0,0.558-0.322,0.837-0.965,0.837
			c-0.741,0-1.111-0.273-1.111-0.82c0-0.325,0.161-0.575,0.485-0.752c0.047-0.046,0.07-0.074,0.07-0.085
			c0-0.034-0.071-0.088-0.212-0.162c-0.229-0.114-0.344-0.339-0.344-0.675c0-0.37,0.144-0.609,0.432-0.718
			c0.082-0.034,0.123-0.071,0.123-0.111c-0.006-0.028-0.018-0.046-0.035-0.051l-0.238-0.137c-0.188-0.114-0.282-0.336-0.282-0.666
			c0-0.308,0.121-0.535,0.362-0.683l0.141-0.068c0.024-0.011,0.035-0.028,0.035-0.051s-0.012-0.046-0.034-0.068l-0.231-0.162
			c-0.182-0.131-0.273-0.342-0.273-0.632c0-0.296,0.108-0.51,0.325-0.641l0.179-0.111c0.023-0.011,0.034-0.028,0.034-0.051
			c0-0.046-0.006-0.068-0.017-0.068l-0.265-0.171c-0.171-0.12-0.256-0.319-0.256-0.598c0-0.57,0.347-0.854,1.042-0.854
			c0.689,0,1.034,0.279,1.034,0.837c0,0.285-0.085,0.49-0.256,0.615l-0.248,0.171c-0.023,0.011-0.034,0.028-0.034,0.051
			s0.011,0.046,0.034,0.068l0.205,0.128c0.199,0.114,0.299,0.328,0.299,0.641c0,0.296-0.106,0.513-0.316,0.649
			c-0.057,0.04-0.085,0.077-0.085,0.111c0,0.057,0.117,0.085,0.35,0.085h3.358C113.83,31.635,114.117,31.903,114.117,32.439z
			 M115.775,27.428c0,0.204-0.083,0.395-0.248,0.574c-0.165,0.179-0.339,0.268-0.521,0.268h-4.562c-0.262,0-0.477-0.078-0.645-0.234
			c-0.168-0.156-0.252-0.353-0.252-0.591c0-0.227,0.08-0.422,0.239-0.586c0.159-0.164,0.347-0.247,0.564-0.247h4.554
			c0.245,0,0.451,0.078,0.619,0.234C115.691,27.001,115.775,27.195,115.775,27.428z M115.792,37.445
			c0,0.211-0.081,0.403-0.243,0.577c-0.162,0.174-0.343,0.261-0.543,0.261h-4.494c-0.644,0-0.965-0.273-0.965-0.82
			c0-0.211,0.077-0.397,0.231-0.56c0.154-0.162,0.328-0.243,0.521-0.243l4.921,0.034c0.154,0.023,0.288,0.111,0.402,0.265
			C115.735,37.112,115.792,37.274,115.792,37.445z"/>
		<path fill="#FFFFFF" d="M119.167,30.832c0,0.296-0.149,0.527-0.446,0.692c-0.12,0.074-0.317,0.111-0.592,0.111h-0.146
			c-0.257,0-0.473-0.081-0.648-0.244c-0.175-0.162-0.262-0.363-0.262-0.602c0-0.296,0.105-0.51,0.316-0.641l0.188-0.128
			c0.023-0.023,0.034-0.04,0.034-0.051c-0.006-0.028-0.017-0.051-0.034-0.068l-0.222-0.137c-0.188-0.12-0.282-0.33-0.282-0.632
			c0-0.558,0.334-0.837,1.004-0.837c0.726,0,1.089,0.285,1.089,0.854c0,0.296-0.113,0.513-0.338,0.649l-0.182,0.103
			c-0.023,0.023-0.035,0.046-0.035,0.068c0.006,0.017,0.012,0.034,0.017,0.051l0.252,0.162
			C119.071,30.303,119.167,30.519,119.167,30.832z M119.167,35.779c0,0.325-0.144,0.564-0.433,0.718
			c-0.127,0.068-0.326,0.103-0.597,0.103c-0.311,0-0.542-0.046-0.692-0.137c-0.248-0.154-0.372-0.365-0.372-0.632
			c0-0.581,0.332-0.871,0.995-0.871c0.311,0,0.539,0.04,0.683,0.12C119.028,35.232,119.167,35.466,119.167,35.779z M124.139,32.439
			c0,0.245-0.083,0.449-0.248,0.611c-0.165,0.162-0.373,0.244-0.624,0.244h-3.452c-0.723,0-1.085-0.279-1.085-0.837
			c0-0.308,0.142-0.547,0.427-0.718c0.114-0.068,0.299-0.103,0.555-0.103h3.554c0.251,0,0.458,0.077,0.624,0.231
			C124.056,32.02,124.139,32.211,124.139,32.439z M124.139,37.441c0,0.561-0.308,0.842-0.923,0.842h-3.622
			c-0.245,0-0.45-0.08-0.615-0.24c-0.165-0.16-0.248-0.355-0.248-0.584c0-0.32,0.134-0.558,0.402-0.713
			c0.131-0.08,0.367-0.12,0.709-0.12h3.392c0.262,0,0.478,0.076,0.649,0.228C124.054,37.004,124.139,37.2,124.139,37.441z
			 M124.139,27.432c0,0.575-0.396,0.863-1.188,0.863c-0.125,0-0.219-0.006-0.282-0.017h-2.973c-0.627,0-0.94-0.276-0.94-0.829
			c0-0.33,0.14-0.57,0.419-0.718c0.154-0.08,0.399-0.12,0.735-0.12h3.007c0.421,0,0.701,0.04,0.837,0.12
			C124.011,26.885,124.139,27.119,124.139,27.432z M125.831,29.115c0,0.33-0.146,0.575-0.437,0.735
			c-0.132,0.068-0.337,0.103-0.618,0.103c-0.692,0-1.038-0.279-1.038-0.837c0-0.547,0.334-0.82,1.004-0.82
			C125.467,28.295,125.831,28.568,125.831,29.115z M125.831,35.779c0,0.245-0.095,0.461-0.285,0.649
			c-0.127,0.125-0.41,0.188-0.848,0.188c-0.64,0-0.96-0.273-0.96-0.82c0-0.319,0.122-0.547,0.367-0.683
			c0.12-0.063,0.179-0.108,0.179-0.137c0-0.046-0.023-0.074-0.068-0.085c-0.319-0.177-0.478-0.421-0.478-0.735
			c0-0.564,0.366-0.846,1.099-0.846c0.663,0,0.995,0.276,0.995,0.829c0,0.302-0.105,0.515-0.313,0.641l-0.197,0.128
			c-0.03,0.023-0.045,0.04-0.045,0.051c0,0.051,0.051,0.097,0.152,0.137C125.696,35.221,125.831,35.449,125.831,35.779z"/>
		<path fill="#FFFFFF" d="M135.656,27.428c0,0.561-0.328,0.842-0.982,0.842h-2.358c-0.268,0-0.402,0.028-0.402,0.085
			c0,0.012,0.006,0.023,0.018,0.034l0.209,0.205c0.122,0.12,0.183,0.302,0.183,0.547c0,0.348-0.142,0.587-0.425,0.718
			c-0.075,0.034-0.113,0.068-0.113,0.103s0.006,0.057,0.017,0.068l0.217,0.146c0.202,0.131,0.304,0.342,0.304,0.633
			c0,0.348-0.142,0.584-0.425,0.71c-0.087,0.051-0.13,0.094-0.13,0.128c0,0.034,0.043,0.068,0.13,0.103
			c0.283,0.126,0.425,0.371,0.425,0.736c0,0.319-0.153,0.564-0.46,0.735c-0.064,0.034-0.095,0.068-0.095,0.103
			c0,0.028,0.037,0.06,0.113,0.094c0.295,0.131,0.443,0.382,0.443,0.753c0,0.348-0.124,0.582-0.373,0.701
			c-0.121,0.051-0.182,0.091-0.182,0.12c0,0.04,0.048,0.08,0.143,0.12c0.275,0.137,0.412,0.376,0.412,0.718
			c0,0.302-0.104,0.519-0.311,0.65c-0.151,0.097-0.227,0.163-0.227,0.197c0,0.028,0.042,0.063,0.126,0.103
			c0.275,0.131,0.412,0.371,0.412,0.719c0,0.558-0.34,0.838-1.021,0.838c-0.303,0-0.526-0.04-0.669-0.12
			c-0.269-0.16-0.403-0.393-0.403-0.701c0-0.319,0.109-0.542,0.326-0.667l0.185-0.103c0.035-0.022,0.053-0.04,0.053-0.051
			c0-0.046-0.018-0.077-0.053-0.094l-0.203-0.12c-0.206-0.125-0.308-0.342-0.308-0.65c0-0.313,0.12-0.541,0.361-0.684
			c0.135-0.074,0.203-0.12,0.203-0.137c-0.006-0.028-0.018-0.051-0.035-0.068l-0.255-0.163c-0.182-0.108-0.273-0.311-0.273-0.607
			c0-0.308,0.103-0.525,0.308-0.65l0.203-0.12c0.029-0.017,0.047-0.043,0.053-0.077c0-0.023-0.088-0.091-0.265-0.205
			c-0.199-0.131-0.299-0.348-0.299-0.65c0-0.342,0.157-0.587,0.47-0.736c0.063-0.04,0.094-0.068,0.094-0.085
			c-0.006-0.034-0.023-0.057-0.051-0.068l-0.162-0.094c-0.234-0.125-0.35-0.351-0.35-0.675c0-0.314,0.111-0.536,0.333-0.667
			c0.142-0.085,0.214-0.146,0.214-0.18s-0.012-0.051-0.034-0.051l-0.179-0.12c-0.222-0.16-0.333-0.376-0.333-0.65
			c0-0.274,0.105-0.496,0.316-0.667c0.068-0.04,0.103-0.079,0.103-0.12c0-0.057-0.117-0.085-0.35-0.085h-2.537
			c-0.251,0-0.461-0.078-0.632-0.234c-0.171-0.156-0.256-0.353-0.256-0.591c0-0.244,0.087-0.443,0.261-0.599
			c0.174-0.156,0.397-0.234,0.671-0.234h6.869c0.239,0,0.421,0.034,0.547,0.102C135.511,26.878,135.656,27.116,135.656,27.428z"/>
		<path fill="#FFFFFF" d="M138.936,30.753c0,0.343-0.141,0.589-0.422,0.737c-0.132,0.074-0.362,0.111-0.689,0.111
			c-0.66,0-0.99-0.277-0.99-0.832c0-0.343,0.153-0.589,0.459-0.737c0.059-0.028,0.088-0.063,0.088-0.103
			c-0.006-0.034-0.029-0.063-0.068-0.086c-0.319-0.206-0.478-0.463-0.478-0.771c0-0.314,0.117-0.537,0.35-0.669
			c0.131-0.074,0.197-0.128,0.197-0.163c0-0.023-0.043-0.057-0.128-0.103c-0.279-0.149-0.419-0.389-0.419-0.72
			c0-0.571,0.316-0.857,0.948-0.857c0.342,0,0.575,0.034,0.701,0.103c0.29,0.166,0.436,0.412,0.436,0.737
			c0,0.337-0.123,0.566-0.367,0.686c-0.12,0.08-0.179,0.132-0.179,0.154c0.011,0.034,0.026,0.054,0.043,0.06l0.154,0.103
			c0.245,0.132,0.367,0.36,0.367,0.686c0,0.337-0.151,0.583-0.453,0.737c-0.057,0.028-0.085,0.057-0.085,0.086
			c0,0.04,0.046,0.086,0.137,0.137C138.803,30.198,138.936,30.433,138.936,30.753z M138.971,35.779c0,0.319-0.145,0.564-0.436,0.735
			c-0.142,0.08-0.365,0.12-0.666,0.12c-0.666,0-1-0.273-1-0.82c0-0.33,0.142-0.575,0.427-0.735c0.12-0.068,0.333-0.103,0.641-0.103
			C138.626,34.976,138.971,35.244,138.971,35.779z M145.635,35.745c0,0.57-0.367,0.854-1.102,0.854
			c-0.638,0-0.957-0.278-0.957-0.833c0-0.334,0.128-0.567,0.384-0.697c0.091-0.045,0.137-0.085,0.137-0.119
			c0-0.023-0.012-0.045-0.034-0.068l-0.154-0.093c-0.234-0.125-0.35-0.357-0.35-0.697c0-0.255,0.12-0.482,0.359-0.68
			c0.028-0.023,0.043-0.051,0.043-0.085c-0.006-0.006-0.01-0.013-0.013-0.021c-0.003-0.009-0.004-0.018-0.004-0.03h-0.034h-0.197
			h-4.34c-0.228,0-0.424-0.085-0.59-0.256c-0.165-0.171-0.248-0.37-0.248-0.598c0-0.222,0.078-0.417,0.235-0.585
			c0.157-0.168,0.334-0.252,0.534-0.252h4.571c0.046,0,0.068-0.026,0.068-0.077c0-0.04-0.039-0.08-0.116-0.12
			c-0.202-0.154-0.303-0.37-0.303-0.649c0-0.325,0.12-0.547,0.361-0.666c0.129-0.063,0.194-0.12,0.194-0.171
			c0-0.017-0.012-0.034-0.035-0.051l-0.238-0.162c-0.188-0.125-0.282-0.333-0.282-0.624c0-0.33,0.126-0.558,0.379-0.683
			c0.117-0.063,0.176-0.111,0.176-0.145c-0.006-0.028-0.017-0.046-0.034-0.051l-0.154-0.103c-0.245-0.165-0.367-0.393-0.367-0.683
			c0-0.558,0.336-0.837,1.008-0.837c0.336,0,0.569,0.046,0.701,0.137c0.245,0.171,0.367,0.399,0.367,0.683
			c0,0.336-0.134,0.581-0.402,0.735c-0.08,0.028-0.12,0.063-0.12,0.103c0,0.046,0.035,0.088,0.106,0.128
			c0.3,0.159,0.45,0.404,0.45,0.735c0,0.313-0.126,0.541-0.379,0.683c-0.118,0.063-0.176,0.108-0.176,0.137
			c0,0.046,0.029,0.074,0.088,0.085c0.311,0.154,0.467,0.404,0.467,0.752c0,0.325-0.138,0.564-0.415,0.718
			c-0.082,0.051-0.123,0.094-0.123,0.128c0,0.028,0.023,0.057,0.068,0.085c0.313,0.194,0.47,0.444,0.47,0.752
			c0,0.268-0.117,0.49-0.35,0.666l-0.137,0.103c-0.034,0.017-0.051,0.034-0.051,0.051c0,0.023,0.011,0.046,0.034,0.068l0.248,0.179
			c0.171,0.125,0.256,0.33,0.256,0.615c0,0.302-0.091,0.504-0.273,0.607l-0.248,0.179c-0.006,0.006-0.012,0.017-0.017,0.034
			c0,0.034,0.051,0.074,0.154,0.12C145.506,35.153,145.635,35.386,145.635,35.745z M143.977,37.428c0,0.234-0.081,0.434-0.244,0.602
			c-0.162,0.168-0.36,0.252-0.594,0.252h-3.699c-0.251,0-0.461-0.078-0.632-0.235c-0.171-0.157-0.256-0.352-0.256-0.585
			c0-0.216,0.082-0.404,0.248-0.564c0.165-0.159,0.356-0.239,0.572-0.239l3.887-0.026c0.182-0.011,0.347,0.065,0.496,0.231
			C143.903,37.029,143.977,37.217,143.977,37.428z"/>
		<path fill="#FFFFFF" d="M149.821,35.762c0,0.57-0.329,0.854-0.986,0.854c-0.32,0-0.549-0.04-0.686-0.12
			c-0.28-0.165-0.42-0.41-0.42-0.735c0-0.273,0.122-0.496,0.367-0.666c0.114-0.08,0.171-0.131,0.171-0.154
			c0-0.023-0.068-0.083-0.205-0.179c-0.222-0.12-0.333-0.339-0.333-0.658c0-0.365,0.14-0.609,0.419-0.735
			c0.08-0.028,0.12-0.06,0.12-0.094c0-0.034-0.068-0.091-0.205-0.171c-0.222-0.125-0.333-0.347-0.333-0.666
			c0-0.342,0.145-0.587,0.436-0.735c0.068-0.034,0.103-0.068,0.103-0.103c0-0.028-0.063-0.083-0.188-0.162
			c-0.234-0.142-0.35-0.37-0.35-0.683c0-0.336,0.151-0.587,0.453-0.752c0.068-0.034,0.103-0.063,0.103-0.085
			c0-0.017-0.029-0.046-0.085-0.085c-0.313-0.159-0.47-0.416-0.47-0.769c0-0.336,0.134-0.57,0.402-0.701
			c0.091-0.046,0.137-0.088,0.137-0.128c-0.006-0.028-0.017-0.051-0.034-0.068l-0.222-0.137c-0.188-0.114-0.282-0.325-0.282-0.632
			c0-0.558,0.329-0.837,0.986-0.837c0.326,0,0.558,0.04,0.695,0.12c0.274,0.159,0.412,0.399,0.412,0.718
			c0,0.336-0.151,0.581-0.452,0.735c-0.058,0.034-0.087,0.068-0.087,0.103c0,0.028,0.066,0.083,0.2,0.162
			c0.226,0.137,0.339,0.37,0.339,0.701c0,0.29-0.156,0.535-0.469,0.735c-0.041,0.011-0.064,0.034-0.069,0.068
			c0,0.057,0.04,0.103,0.121,0.137c0.278,0.131,0.417,0.359,0.417,0.683c0,0.347-0.113,0.581-0.339,0.701
			c-0.133,0.074-0.2,0.134-0.2,0.179c0.006,0.028,0.017,0.051,0.035,0.068l0.165,0.085c0.226,0.125,0.339,0.353,0.339,0.683
			c0,0.279-0.101,0.496-0.304,0.649c-0.156,0.085-0.234,0.142-0.234,0.171c0,0.028,0.061,0.088,0.182,0.179
			c0.237,0.125,0.356,0.347,0.356,0.666c0,0.313-0.113,0.538-0.339,0.675c-0.133,0.085-0.2,0.14-0.2,0.162
			c0,0.034,0.006,0.057,0.017,0.068l0.269,0.179C149.737,35.298,149.821,35.489,149.821,35.762z M155.673,37.445
			c0,0.245-0.08,0.446-0.239,0.602c-0.159,0.157-0.367,0.235-0.624,0.235h-4.494c-0.262,0-0.48-0.078-0.654-0.235
			c-0.174-0.157-0.261-0.352-0.261-0.585c0-0.251,0.094-0.456,0.282-0.615c0.154-0.125,0.458-0.188,0.914-0.188h4.178
			c0.262,0,0.477,0.074,0.645,0.222C155.589,37.029,155.673,37.217,155.673,37.445z"/>
		<path fill="#FFFFFF" d="M163.2,32.439c0,0.251-0.085,0.453-0.256,0.607c-0.171,0.154-0.39,0.231-0.658,0.231h-3.306
			c-0.188,0-0.296,0.014-0.325,0.043c-0.017,0.006-0.026,0.023-0.026,0.051c0,0.028,0.04,0.068,0.12,0.12
			c0.188,0.165,0.282,0.382,0.282,0.649c0,0.313-0.122,0.538-0.367,0.675c-0.114,0.068-0.171,0.117-0.171,0.145
			c0,0.023,0.057,0.068,0.171,0.137c0.245,0.148,0.367,0.376,0.367,0.683c0,0.558-0.321,0.837-0.965,0.837
			c-0.741,0-1.111-0.273-1.111-0.82c0-0.325,0.161-0.575,0.485-0.752c0.047-0.046,0.07-0.074,0.07-0.085
			c0-0.034-0.071-0.088-0.212-0.162c-0.229-0.114-0.344-0.339-0.344-0.675c0-0.37,0.144-0.609,0.432-0.718
			c0.082-0.034,0.123-0.071,0.123-0.111c-0.006-0.028-0.018-0.046-0.035-0.051l-0.238-0.137c-0.188-0.114-0.282-0.336-0.282-0.666
			c0-0.308,0.121-0.535,0.362-0.683l0.141-0.068c0.024-0.011,0.035-0.028,0.035-0.051s-0.012-0.046-0.034-0.068l-0.231-0.162
			c-0.182-0.131-0.273-0.342-0.273-0.632c0-0.296,0.108-0.51,0.325-0.641l0.179-0.111c0.023-0.011,0.034-0.028,0.034-0.051
			c0-0.046-0.006-0.068-0.017-0.068l-0.265-0.171c-0.171-0.12-0.256-0.319-0.256-0.598c0-0.57,0.347-0.854,1.042-0.854
			c0.689,0,1.034,0.279,1.034,0.837c0,0.285-0.085,0.49-0.256,0.615l-0.248,0.171c-0.023,0.011-0.034,0.028-0.034,0.051
			s0.011,0.046,0.034,0.068l0.205,0.128c0.199,0.114,0.299,0.328,0.299,0.641c0,0.296-0.105,0.513-0.316,0.649
			c-0.057,0.04-0.085,0.077-0.085,0.111c0,0.057,0.117,0.085,0.35,0.085h3.358C162.912,31.635,163.2,31.903,163.2,32.439z
			 M164.857,27.428c0,0.204-0.083,0.395-0.248,0.574c-0.165,0.179-0.339,0.268-0.521,0.268h-4.562c-0.262,0-0.477-0.078-0.645-0.234
			c-0.168-0.156-0.252-0.353-0.252-0.591c0-0.227,0.08-0.422,0.239-0.586c0.159-0.164,0.347-0.247,0.564-0.247h4.554
			c0.245,0,0.452,0.078,0.62,0.234C164.774,27.001,164.857,27.195,164.857,27.428z M164.875,37.445c0,0.211-0.081,0.403-0.243,0.577
			c-0.162,0.174-0.343,0.261-0.543,0.261h-4.494c-0.644,0-0.965-0.273-0.965-0.82c0-0.211,0.077-0.397,0.231-0.56
			c0.154-0.162,0.327-0.243,0.521-0.243l4.921,0.034c0.154,0.023,0.288,0.111,0.402,0.265
			C164.818,37.112,164.875,37.274,164.875,37.445z"/>
		<path fill="#FFFFFF" d="M175.272,29.064c0,0.251-0.087,0.459-0.261,0.624c-0.174,0.165-0.392,0.248-0.654,0.248h-1.119
			c-0.046,0-0.068,0.023-0.068,0.068c0,0.028,0.047,0.077,0.142,0.145c0.195,0.137,0.293,0.345,0.293,0.624
			c0,0.313-0.109,0.53-0.326,0.649l-0.211,0.128c-0.018,0.011-0.026,0.034-0.026,0.068c0,0.04,0.05,0.08,0.15,0.12
			c0.276,0.148,0.414,0.376,0.414,0.683c0,0.336-0.12,0.575-0.361,0.718c-0.135,0.057-0.203,0.108-0.203,0.154
			c0.006,0.017,0.014,0.034,0.026,0.051l0.188,0.128c0.211,0.131,0.316,0.353,0.316,0.666c0,0.308-0.1,0.521-0.299,0.641
			c-0.154,0.097-0.231,0.162-0.231,0.197c0,0.023,0.083,0.094,0.248,0.214c0.188,0.131,0.282,0.339,0.282,0.624
			c0,0.325-0.111,0.547-0.333,0.666c-0.131,0.085-0.196,0.145-0.196,0.179c0,0.028,0.065,0.085,0.196,0.171
			c0.222,0.148,0.333,0.365,0.333,0.649c0,0.57-0.345,0.854-1.034,0.854c-0.302,0-0.518-0.04-0.649-0.12
			c-0.268-0.171-0.402-0.415-0.402-0.734c0-0.335,0.14-0.569,0.419-0.699c0.085-0.04,0.128-0.079,0.128-0.12
			c0-0.034-0.043-0.071-0.128-0.111c-0.279-0.125-0.419-0.37-0.419-0.734c0-0.296,0.111-0.517,0.333-0.666l0.162-0.102
			c0.028-0.017,0.046-0.04,0.051-0.068c-0.006-0.034-0.017-0.051-0.034-0.051l-0.214-0.145c-0.199-0.131-0.299-0.344-0.299-0.64
			c0-0.33,0.117-0.557,0.35-0.683c0.12-0.08,0.179-0.134,0.179-0.162c0-0.034-0.06-0.085-0.179-0.154
			c-0.234-0.142-0.35-0.375-0.35-0.699c0-0.353,0.151-0.597,0.453-0.734c0.063-0.028,0.094-0.057,0.094-0.085
			c0-0.04-0.083-0.111-0.248-0.213c-0.199-0.119-0.299-0.335-0.299-0.648c0-0.341,0.134-0.574,0.402-0.699
			c0.097-0.057,0.145-0.097,0.145-0.119c0-0.046-0.048-0.091-0.145-0.136c-0.268-0.136-0.402-0.376-0.402-0.717
			c0-0.296,0.105-0.517,0.316-0.665L172,28.327c0.023-0.023,0.034-0.048,0.034-0.077c-0.006-0.028-0.017-0.046-0.034-0.051
			l-0.179-0.103c-0.222-0.131-0.333-0.358-0.333-0.682c0-0.557,0.316-0.836,0.948-0.836c0.433,0,0.736,0.082,0.91,0.245
			c0.174,0.163,0.261,0.358,0.261,0.583c0,0.259-0.111,0.479-0.333,0.66c-0.057,0.056-0.085,0.096-0.085,0.118
			c0,0.045,0.074,0.068,0.222,0.068h1.034c0.222,0,0.416,0.08,0.581,0.239C175.189,28.651,175.272,28.842,175.272,29.064z
			 M176.947,30.755c0,0.575-0.339,0.863-1.017,0.863c-0.296,0-0.51-0.043-0.641-0.128c-0.296-0.177-0.444-0.416-0.444-0.718
			c0-0.558,0.328-0.837,0.983-0.837C176.574,29.935,176.947,30.209,176.947,30.755z M180.304,37.496c0,0.33-0.145,0.575-0.436,0.735
			c-0.125,0.068-0.328,0.103-0.607,0.103c-0.701,0-1.051-0.279-1.051-0.837c0-0.325,0.128-0.558,0.384-0.701
			c0.103-0.057,0.154-0.097,0.154-0.12c0-0.034-0.074-0.1-0.222-0.197c-0.211-0.131-0.316-0.347-0.316-0.649
			c0-0.302,0.105-0.515,0.316-0.641l0.188-0.145c0.023-0.011,0.034-0.028,0.034-0.051c-0.006-0.028-0.017-0.051-0.034-0.068
			l-0.214-0.145c-0.194-0.131-0.29-0.345-0.29-0.641c0-0.262,0.091-0.467,0.273-0.615c0.074-0.057,0.117-0.103,0.128-0.137
			c0-0.063-0.054-0.094-0.162-0.094h-0.871c-0.701,0-1.051-0.273-1.051-0.82c0-0.211,0.08-0.403,0.239-0.577
			c0.159-0.174,0.33-0.261,0.513-0.261h1.264c0.046,0,0.068-0.023,0.068-0.068c0-0.051-0.043-0.105-0.128-0.162
			c-0.182-0.125-0.273-0.336-0.273-0.632c0-0.33,0.117-0.555,0.35-0.675c0.125-0.068,0.188-0.117,0.188-0.145
			c0-0.034-0.006-0.057-0.017-0.068l-0.282-0.196c-0.159-0.108-0.239-0.299-0.239-0.572c0-0.33,0.111-0.558,0.333-0.683
			c0.148-0.085,0.222-0.145,0.222-0.179c-0.006-0.028-0.018-0.051-0.035-0.068l-0.176-0.103c-0.229-0.131-0.344-0.353-0.344-0.666
			c0-0.558,0.359-0.837,1.077-0.837c0.677,0,1.016,0.279,1.016,0.837c0,0.319-0.097,0.535-0.29,0.649l-0.214,0.12
			c-0.023,0.023-0.034,0.046-0.034,0.068c0.006,0.034,0.023,0.06,0.051,0.077l0.154,0.085c0.222,0.159,0.333,0.387,0.333,0.683
			c0,0.29-0.162,0.547-0.487,0.769c-0.034,0.034-0.051,0.057-0.051,0.068c0,0.04,0.077,0.105,0.231,0.196
			c0.205,0.12,0.308,0.339,0.308,0.658c0,0.302-0.103,0.518-0.308,0.649l-0.197,0.128c-0.023,0.023-0.034,0.04-0.034,0.051
			c0,0.028,0.063,0.08,0.188,0.154c0.233,0.142,0.35,0.365,0.35,0.666c0,0.302-0.085,0.513-0.256,0.632
			c-0.188,0.125-0.282,0.205-0.282,0.239c0.006,0.034,0.023,0.06,0.051,0.077l0.214,0.137c0.182,0.125,0.273,0.336,0.273,0.632
			c0,0.296-0.111,0.515-0.333,0.658l-0.154,0.111c-0.034,0.017-0.051,0.04-0.051,0.068c0.006,0.034,0.023,0.057,0.051,0.068
			l0.214,0.145c0.182,0.12,0.273,0.322,0.273,0.607c0,0.325-0.111,0.552-0.333,0.683c-0.137,0.085-0.205,0.145-0.205,0.179
			c0,0.028,0.04,0.068,0.12,0.12c0.017,0.006,0.034,0.017,0.051,0.034C180.182,36.995,180.304,37.217,180.304,37.496z"/>
		<path fill="#FFFFFF" d="M188.643,32.439c0,0.251-0.085,0.453-0.256,0.607c-0.171,0.154-0.39,0.231-0.658,0.231h-3.306
			c-0.188,0-0.296,0.014-0.325,0.043c-0.017,0.006-0.026,0.023-0.026,0.051c0,0.028,0.04,0.068,0.12,0.12
			c0.188,0.165,0.282,0.382,0.282,0.649c0,0.313-0.122,0.538-0.367,0.675c-0.114,0.068-0.171,0.117-0.171,0.145
			c0,0.023,0.057,0.068,0.171,0.137c0.245,0.148,0.367,0.376,0.367,0.683c0,0.558-0.322,0.837-0.965,0.837
			c-0.741,0-1.111-0.273-1.111-0.82c0-0.325,0.161-0.575,0.485-0.752c0.047-0.046,0.071-0.074,0.071-0.085
			c0-0.034-0.071-0.088-0.212-0.162c-0.229-0.114-0.344-0.339-0.344-0.675c0-0.37,0.144-0.609,0.432-0.718
			c0.082-0.034,0.123-0.071,0.123-0.111c-0.006-0.028-0.018-0.046-0.035-0.051l-0.238-0.137c-0.188-0.114-0.282-0.336-0.282-0.666
			c0-0.308,0.12-0.535,0.362-0.683l0.141-0.068c0.024-0.011,0.035-0.028,0.035-0.051s-0.011-0.046-0.034-0.068l-0.231-0.162
			c-0.182-0.131-0.273-0.342-0.273-0.632c0-0.296,0.108-0.51,0.325-0.641l0.179-0.111c0.023-0.011,0.034-0.028,0.034-0.051
			c0-0.046-0.006-0.068-0.017-0.068l-0.265-0.171c-0.171-0.12-0.256-0.319-0.256-0.598c0-0.57,0.347-0.854,1.042-0.854
			c0.689,0,1.034,0.279,1.034,0.837c0,0.285-0.085,0.49-0.256,0.615l-0.248,0.171c-0.023,0.011-0.034,0.028-0.034,0.051
			s0.011,0.046,0.034,0.068l0.205,0.128c0.199,0.114,0.299,0.328,0.299,0.641c0,0.296-0.105,0.513-0.316,0.649
			c-0.057,0.04-0.085,0.077-0.085,0.111c0,0.057,0.117,0.085,0.35,0.085h3.358C188.355,31.635,188.643,31.903,188.643,32.439z
			 M190.3,27.428c0,0.204-0.083,0.395-0.248,0.574c-0.165,0.179-0.339,0.268-0.521,0.268h-4.562c-0.262,0-0.477-0.078-0.645-0.234
			c-0.168-0.156-0.252-0.353-0.252-0.591c0-0.227,0.08-0.422,0.239-0.586c0.159-0.164,0.347-0.247,0.564-0.247h4.554
			c0.245,0,0.451,0.078,0.619,0.234C190.216,27.001,190.3,27.195,190.3,27.428z M190.317,37.445c0,0.211-0.081,0.403-0.244,0.577
			c-0.162,0.174-0.343,0.261-0.542,0.261h-4.494c-0.644,0-0.965-0.273-0.965-0.82c0-0.211,0.077-0.397,0.231-0.56
			c0.154-0.162,0.327-0.243,0.521-0.243l4.921,0.034c0.154,0.023,0.288,0.111,0.402,0.265
			C190.26,37.112,190.317,37.274,190.317,37.445z"/>
		<path fill="#FFFFFF" d="M200.031,27.428c0,0.561-0.327,0.842-0.982,0.842h-2.358c-0.268,0-0.402,0.028-0.402,0.085
			c0,0.012,0.006,0.023,0.017,0.034l0.209,0.205c0.122,0.12,0.183,0.302,0.183,0.547c0,0.348-0.142,0.587-0.425,0.718
			c-0.075,0.034-0.113,0.068-0.113,0.103s0.006,0.057,0.017,0.068l0.217,0.146c0.202,0.131,0.304,0.342,0.304,0.633
			c0,0.348-0.142,0.584-0.425,0.71c-0.087,0.051-0.13,0.094-0.13,0.128c0,0.034,0.043,0.068,0.13,0.103
			c0.283,0.126,0.425,0.371,0.425,0.736c0,0.319-0.153,0.564-0.46,0.735c-0.064,0.034-0.095,0.068-0.095,0.103
			c0,0.028,0.038,0.06,0.113,0.094c0.295,0.131,0.443,0.382,0.443,0.753c0,0.348-0.124,0.582-0.373,0.701
			c-0.122,0.051-0.182,0.091-0.182,0.12c0,0.04,0.048,0.08,0.143,0.12c0.275,0.137,0.412,0.376,0.412,0.718
			c0,0.302-0.104,0.519-0.311,0.65c-0.151,0.097-0.227,0.163-0.227,0.197c0,0.028,0.042,0.063,0.126,0.103
			c0.275,0.131,0.412,0.371,0.412,0.719c0,0.558-0.34,0.838-1.021,0.838c-0.303,0-0.526-0.04-0.669-0.12
			c-0.269-0.16-0.403-0.393-0.403-0.701c0-0.319,0.109-0.542,0.326-0.667l0.185-0.103c0.035-0.022,0.053-0.04,0.053-0.051
			c0-0.046-0.018-0.077-0.053-0.094l-0.203-0.12c-0.206-0.125-0.308-0.342-0.308-0.65c0-0.313,0.12-0.541,0.361-0.684
			c0.135-0.074,0.203-0.12,0.203-0.137c-0.006-0.028-0.018-0.051-0.035-0.068l-0.255-0.163c-0.182-0.108-0.273-0.311-0.273-0.607
			c0-0.308,0.103-0.525,0.308-0.65l0.203-0.12c0.03-0.017,0.047-0.043,0.053-0.077c0-0.023-0.088-0.091-0.265-0.205
			c-0.199-0.131-0.299-0.348-0.299-0.65c0-0.342,0.157-0.587,0.47-0.736c0.063-0.04,0.094-0.068,0.094-0.085
			c-0.006-0.034-0.023-0.057-0.051-0.068l-0.162-0.094c-0.234-0.125-0.35-0.351-0.35-0.675c0-0.314,0.111-0.536,0.333-0.667
			c0.142-0.085,0.214-0.146,0.214-0.18s-0.011-0.051-0.034-0.051l-0.179-0.12c-0.222-0.16-0.333-0.376-0.333-0.65
			c0-0.274,0.105-0.496,0.316-0.667c0.068-0.04,0.103-0.079,0.103-0.12c0-0.057-0.117-0.085-0.35-0.085h-2.537
			c-0.251,0-0.461-0.078-0.632-0.234c-0.171-0.156-0.256-0.353-0.256-0.591c0-0.244,0.087-0.443,0.261-0.599
			c0.174-0.156,0.397-0.234,0.671-0.234h6.869c0.239,0,0.421,0.034,0.547,0.102C199.886,26.878,200.031,27.116,200.031,27.428z"/>
		<path fill="#FFFFFF" d="M203.551,29.094c0,0.341-0.159,0.591-0.478,0.751c-0.051,0.034-0.08,0.062-0.085,0.085
			c0,0.04,0.056,0.085,0.167,0.136c0.264,0.136,0.396,0.37,0.396,0.699c0,0.353-0.147,0.603-0.441,0.75
			c-0.082,0.034-0.123,0.071-0.123,0.111c0,0.034,0.041,0.068,0.123,0.103c0.294,0.125,0.441,0.369,0.441,0.733
			c0,0.324-0.115,0.546-0.344,0.665l-0.185,0.119c-0.024,0.006-0.035,0.023-0.035,0.051c0,0.028,0.085,0.094,0.255,0.196
			c0.206,0.119,0.308,0.33,0.308,0.631c0,0.284-0.091,0.492-0.273,0.623l-0.291,0.213v0.017c0,0.04,0.029,0.074,0.088,0.102
			c0.317,0.142,0.476,0.381,0.476,0.717c0,0.574-0.325,0.861-0.973,0.861c-0.356,0-0.597-0.043-0.723-0.128
			c-0.281-0.148-0.422-0.387-0.422-0.717c0-0.313,0.111-0.535,0.333-0.665c0.137-0.079,0.205-0.136,0.205-0.171
			c0-0.034-0.063-0.088-0.188-0.162c-0.234-0.125-0.35-0.35-0.35-0.674c0-0.335,0.134-0.574,0.402-0.717
			c0.091-0.04,0.137-0.082,0.137-0.128c0-0.034-0.074-0.097-0.222-0.188c-0.211-0.125-0.316-0.347-0.316-0.665
			c0-0.33,0.14-0.568,0.419-0.716c0.08-0.046,0.12-0.08,0.12-0.103v-0.034l-0.222-0.162c-0.211-0.142-0.316-0.358-0.316-0.648
			c0-0.301,0.111-0.52,0.333-0.657l0.188-0.128c0.023-0.023,0.034-0.04,0.034-0.051c0-0.023-0.012-0.046-0.035-0.068l-0.247-0.162
			c-0.182-0.108-0.273-0.316-0.273-0.623c0-0.33,0.15-0.574,0.45-0.734c0.07-0.04,0.106-0.077,0.106-0.111
			c0-0.017-0.006-0.034-0.018-0.051l-0.141-0.068c-0.265-0.125-0.397-0.364-0.397-0.717c0-0.557,0.353-0.836,1.059-0.836
			c0.293,0,0.505,0.04,0.637,0.119c0.281,0.176,0.422,0.421,0.422,0.734c0,0.335-0.159,0.586-0.478,0.751
			c-0.051,0.017-0.08,0.04-0.085,0.068c0,0.04,0.029,0.071,0.085,0.094C203.392,28.497,203.551,28.747,203.551,29.094z
			 M205.192,37.522c0,0.553-0.35,0.829-1.051,0.829c-0.689,0-1.034-0.288-1.034-0.863c0-0.305,0.131-0.535,0.393-0.691
			c0.148-0.092,0.379-0.138,0.692-0.138C204.858,36.659,205.192,36.947,205.192,37.522z M206.883,35.813
			c0,0.262-0.105,0.478-0.315,0.649c-0.131,0.131-0.42,0.197-0.868,0.197c-0.607,0-0.91-0.282-0.91-0.846
			c0-0.313,0.105-0.53,0.316-0.649l0.188-0.103c0.04-0.017,0.06-0.046,0.06-0.085c0-0.028-0.05-0.063-0.15-0.103
			c-0.276-0.12-0.414-0.359-0.414-0.718c0-0.347,0.146-0.592,0.437-0.735c0.114-0.074,0.337-0.111,0.669-0.111
			c0.658,0,0.986,0.288,0.986,0.863c0,0.325-0.132,0.552-0.395,0.683c-0.095,0.04-0.143,0.08-0.143,0.12
			c0,0.057,0.048,0.108,0.143,0.154C206.751,35.272,206.883,35.5,206.883,35.813z M208.549,37.531
			c-0.023,0.547-0.39,0.82-1.102,0.82c-0.649,0-0.974-0.29-0.974-0.871c0-0.535,0.336-0.803,1.008-0.803
			C208.222,36.676,208.578,36.961,208.549,37.531z M210.266,30.773c0,0.347-0.145,0.598-0.436,0.752
			c-0.08,0.034-0.12,0.071-0.12,0.111c0,0.028,0.047,0.068,0.141,0.12c0.276,0.148,0.414,0.387,0.414,0.718
			c0,0.308-0.103,0.524-0.309,0.649l-0.194,0.12c-0.024,0.023-0.035,0.04-0.035,0.051c0,0.046,0.065,0.111,0.194,0.196
			c0.229,0.12,0.344,0.342,0.344,0.666c0,0.33-0.15,0.575-0.45,0.735c-0.07,0.034-0.106,0.068-0.106,0.103
			c0,0.04,0.047,0.08,0.141,0.12c0.276,0.131,0.414,0.365,0.414,0.701c0,0.575-0.359,0.863-1.076,0.863
			c-0.299,0-0.511-0.043-0.638-0.128c-0.27-0.171-0.405-0.416-0.405-0.735c0-0.302,0.148-0.535,0.444-0.701
			c0.08-0.057,0.12-0.097,0.12-0.12c-0.041-0.057-0.132-0.128-0.273-0.214c-0.194-0.114-0.291-0.333-0.291-0.658
			c0-0.29,0.114-0.507,0.344-0.649c0.147-0.091,0.22-0.145,0.22-0.162c-0.006-0.006-0.01-0.013-0.013-0.021
			c-0.003-0.009-0.005-0.018-0.005-0.03l-0.273-0.171c-0.182-0.12-0.273-0.319-0.273-0.598c0-0.336,0.114-0.564,0.344-0.683
			c0.147-0.091,0.22-0.154,0.22-0.188c0-0.028-0.067-0.077-0.203-0.145c-0.241-0.148-0.361-0.376-0.361-0.683
			c0-0.325,0.147-0.57,0.441-0.735c0.082-0.046,0.123-0.085,0.123-0.12c0-0.028-0.048-0.068-0.145-0.12
			c-0.256-0.148-0.384-0.382-0.384-0.701c0-0.33,0.117-0.564,0.35-0.701c0.131-0.074,0.196-0.128,0.196-0.162
			s-0.046-0.068-0.137-0.103c-0.273-0.131-0.41-0.359-0.41-0.683c0-0.592,0.328-0.889,0.983-0.889c0.353,0,0.587,0.04,0.701,0.12
			c0.268,0.154,0.402,0.393,0.402,0.718c0,0.347-0.122,0.581-0.367,0.701c-0.114,0.057-0.171,0.103-0.171,0.137
			c0,0.04,0.046,0.083,0.137,0.128c0.268,0.125,0.402,0.365,0.402,0.718c0,0.33-0.122,0.564-0.367,0.701
			c-0.125,0.068-0.188,0.114-0.188,0.137c0,0.04,0.051,0.085,0.154,0.137C210.133,30.214,210.266,30.448,210.266,30.773z"/>
		<path fill="#FFFFFF" d="M214.325,35.779c0,0.245-0.085,0.443-0.256,0.594c-0.171,0.151-0.393,0.226-0.666,0.226h-0.162
			c-0.661,0-0.991-0.273-0.991-0.82c0-0.296,0.103-0.513,0.308-0.649l0.197-0.12c0.023-0.023,0.034-0.04,0.034-0.051
			c0-0.046-0.018-0.068-0.053-0.068l-0.167-0.111c-0.212-0.137-0.318-0.356-0.318-0.658c0-0.308,0.1-0.53,0.3-0.666l0.203-0.111
			c0.024-0.017,0.035-0.04,0.035-0.068c-0.006-0.028-0.018-0.046-0.035-0.051l-0.273-0.205c-0.153-0.125-0.23-0.313-0.23-0.564
			c0-0.336,0.106-0.558,0.318-0.666c0.147-0.085,0.22-0.142,0.22-0.171c0-0.034-0.012-0.057-0.035-0.068l-0.203-0.145
			c-0.2-0.142-0.3-0.353-0.3-0.632c0-0.319,0.12-0.544,0.362-0.675c0.118-0.068,0.177-0.122,0.177-0.162
			c0-0.017-0.006-0.034-0.018-0.051l-0.238-0.154c-0.188-0.131-0.282-0.336-0.282-0.615c0-0.251,0.089-0.461,0.267-0.632
			c0.178-0.171,0.393-0.248,0.646-0.231l0.216,0.026c0.632,0.051,0.947,0.325,0.947,0.82c0,0.313-0.08,0.524-0.239,0.632
			l-0.248,0.154c-0.023,0.023-0.034,0.04-0.034,0.051c0.006,0.028,0.017,0.051,0.034,0.068l0.205,0.145
			c0.188,0.125,0.282,0.333,0.282,0.624c0,0.296-0.094,0.507-0.282,0.632l-0.205,0.145c-0.023,0.023-0.034,0.04-0.034,0.051
			c0,0.04,0.074,0.103,0.222,0.188c0.199,0.12,0.299,0.336,0.299,0.649c0,0.308-0.1,0.524-0.299,0.649l-0.188,0.12
			c-0.023,0.023-0.034,0.046-0.034,0.068c0.006,0.028,0.017,0.051,0.034,0.068l0.171,0.111c0.211,0.125,0.316,0.347,0.316,0.666
			c0,0.353-0.145,0.598-0.436,0.735c-0.057,0.034-0.085,0.063-0.085,0.085c0,0.034,0.04,0.074,0.12,0.12
			C214.191,35.215,214.325,35.454,214.325,35.779z M219.331,37.445c0,0.245-0.084,0.446-0.252,0.602
			c-0.168,0.157-0.389,0.235-0.662,0.235h-3.691c-0.211,0-0.397-0.083-0.56-0.248c-0.162-0.165-0.243-0.356-0.243-0.572
			c0-0.228,0.083-0.419,0.248-0.572c0.165-0.154,0.376-0.231,0.632-0.231h3.64C219.035,36.659,219.331,36.921,219.331,37.445z
			 M219.348,27.432c0,0.547-0.322,0.82-0.965,0.82h-3.059c-0.524,0-0.852-0.034-0.982-0.103c-0.268-0.142-0.402-0.382-0.402-0.718
			c0-0.216,0.075-0.407,0.226-0.572c0.151-0.165,0.326-0.248,0.525-0.248h3.785c0.251,0,0.458,0.078,0.624,0.235
			C219.266,27.003,219.348,27.199,219.348,27.432z M221.023,32.456c0,0.308-0.101,0.524-0.304,0.649l-0.234,0.137
			c-0.012,0.006-0.017,0.023-0.017,0.051c0.006,0.028,0.018,0.054,0.036,0.077l0.206,0.12c0.209,0.125,0.314,0.33,0.314,0.615
			c0,0.325-0.11,0.55-0.331,0.675c-0.149,0.085-0.224,0.145-0.224,0.179c0,0.04,0.069,0.097,0.206,0.171
			c0.233,0.131,0.349,0.347,0.349,0.649c0,0.558-0.331,0.837-0.995,0.837c-0.732,0-1.098-0.273-1.098-0.82
			c0-0.325,0.117-0.553,0.35-0.683c0.114-0.063,0.171-0.114,0.171-0.154c-0.006-0.028-0.017-0.051-0.034-0.068l-0.205-0.145
			c-0.188-0.125-0.282-0.333-0.282-0.624c0-0.347,0.128-0.581,0.384-0.701l0.034-0.017c0.08-0.04,0.12-0.071,0.12-0.094
			c0-0.034-0.074-0.097-0.222-0.188c-0.211-0.125-0.316-0.347-0.316-0.666c0-0.319,0.117-0.547,0.35-0.684
			c0.125-0.074,0.188-0.125,0.188-0.154c-0.006-0.034-0.017-0.051-0.034-0.051l-0.171-0.128c-0.222-0.108-0.333-0.33-0.333-0.666
			c0-0.285,0.105-0.493,0.316-0.624l0.188-0.128c0.023-0.023,0.034-0.046,0.034-0.068c0-0.034-0.08-0.097-0.239-0.188
			c-0.199-0.12-0.299-0.325-0.299-0.615c0-0.57,0.329-0.854,0.986-0.854c0.343,0,0.569,0.034,0.678,0.103
			c0.286,0.177,0.429,0.416,0.429,0.718c0,0.325-0.119,0.552-0.356,0.683c-0.133,0.085-0.2,0.137-0.2,0.154
			c0,0.023,0.011,0.046,0.035,0.068l0.234,0.145c0.191,0.137,0.286,0.345,0.286,0.624c0,0.342-0.13,0.575-0.39,0.701
			c-0.11,0.057-0.165,0.1-0.165,0.128c0,0.04,0.029,0.074,0.087,0.103C220.867,31.875,221.023,32.12,221.023,32.456z"/>
		<path fill="#FFFFFF" d="M230.216,27.428c0,0.238-0.083,0.438-0.248,0.599c-0.165,0.161-0.37,0.242-0.615,0.242h-4.28
			c-0.177,0-0.265,0.023-0.265,0.068c0,0.046,0.028,0.091,0.083,0.137c0.206,0.194,0.31,0.399,0.31,0.616
			c0,0.331-0.115,0.564-0.345,0.701c-0.129,0.074-0.193,0.125-0.193,0.154c0.011,0.046,0.026,0.068,0.043,0.068l0.208,0.163
			c0.191,0.137,0.286,0.339,0.286,0.607c0,0.29-0.095,0.501-0.286,0.633l-0.252,0.18c0,0.006-0.001,0.01-0.005,0.013
			c-0.003,0.003-0.007,0.01-0.013,0.021c0,0.028,0.078,0.091,0.234,0.188c0.214,0.137,0.321,0.353,0.321,0.65
			c0,0.325-0.113,0.553-0.339,0.684c-0.133,0.074-0.2,0.125-0.2,0.154c0,0.04,0.055,0.088,0.165,0.145
			c0.249,0.126,0.373,0.359,0.373,0.701c0,0.302-0.159,0.556-0.478,0.761c-0.04,0.023-0.061,0.048-0.061,0.077
			s0.084,0.1,0.252,0.214c0.191,0.125,0.286,0.333,0.286,0.624c0,0.331-0.142,0.57-0.425,0.719
			c-0.093,0.046-0.142,0.083-0.148,0.111c0,0.04,0.02,0.068,0.061,0.085l0.173,0.12c0.226,0.154,0.338,0.365,0.338,0.633
			c0,0.547-0.323,0.821-0.969,0.821c-0.314,0-0.523-0.023-0.626-0.068c-0.332-0.142-0.498-0.399-0.498-0.769
			c0-0.37,0.14-0.609,0.419-0.718c0.074-0.028,0.111-0.063,0.111-0.103c0-0.04-0.077-0.105-0.231-0.197
			c-0.199-0.12-0.299-0.336-0.299-0.649c0-0.296,0.1-0.513,0.299-0.649c0.154-0.08,0.231-0.137,0.231-0.171
			c0-0.034-0.006-0.057-0.017-0.068l-0.248-0.162c-0.177-0.108-0.265-0.31-0.265-0.607c0-0.313,0.111-0.541,0.333-0.683l0.179-0.085
			c0.023-0.028,0.034-0.054,0.034-0.077c0-0.028-0.054-0.068-0.162-0.12c-0.256-0.159-0.384-0.399-0.384-0.718
			c0-0.313,0.122-0.541,0.367-0.683c0.12-0.08,0.179-0.131,0.179-0.154s-0.031-0.051-0.094-0.085
			c-0.302-0.142-0.453-0.396-0.453-0.76c0-0.336,0.128-0.567,0.384-0.692c0.108-0.057,0.162-0.105,0.162-0.145
			c0-0.028-0.06-0.074-0.179-0.137c-0.245-0.131-0.367-0.359-0.367-0.683c0-0.319,0.105-0.541,0.316-0.666
			c0.142-0.085,0.214-0.142,0.214-0.171c0-0.04-0.011-0.071-0.034-0.094l-0.214-0.137c-0.188-0.125-0.282-0.33-0.282-0.615
			c0-0.37,0.151-0.621,0.453-0.752c0.137-0.057,0.476-0.085,1.017-0.085h4.81c0.228,0,0.423,0.081,0.585,0.242
			C230.135,27.016,230.216,27.207,230.216,27.428z M230.216,32.456c0,0.57-0.322,0.854-0.965,0.854h-1.051
			c-0.046,0-0.068,0.026-0.068,0.077c0,0.034,0.04,0.08,0.12,0.137c0.188,0.125,0.282,0.33,0.282,0.615
			c0,0.57-0.322,0.854-0.965,0.854c-0.336,0-0.575-0.04-0.718-0.12c-0.268-0.159-0.402-0.399-0.402-0.718
			c0-0.222,0.071-0.404,0.214-0.547l0.188-0.154c0.006-0.011,0.01-0.021,0.013-0.03c0.003-0.009,0.007-0.016,0.013-0.021
			c0-0.063-0.026-0.094-0.077-0.094h-0.384c-0.199,0-0.38-0.084-0.543-0.252c-0.162-0.168-0.243-0.357-0.243-0.568
			c0-0.234,0.078-0.429,0.235-0.585c0.157-0.157,0.352-0.235,0.585-0.235h2.802c0.302,0,0.524,0.057,0.666,0.171
			C230.116,32.006,230.216,32.211,230.216,32.456z M230.216,35.813c0,0.33-0.14,0.575-0.419,0.735
			c-0.125,0.074-0.33,0.111-0.615,0.111c-0.279,0-0.478-0.031-0.598-0.094c-0.302-0.148-0.453-0.387-0.453-0.718
			c0-0.33,0.145-0.575,0.436-0.735c0.131-0.068,0.33-0.103,0.598-0.103c0.302,0,0.518,0.034,0.649,0.103
			C230.082,35.261,230.216,35.494,230.216,35.813z M231.89,30.79c0,0.256-0.091,0.464-0.273,0.624
			c-0.182,0.159-0.416,0.239-0.701,0.239c-0.735,0-1.102-0.288-1.102-0.863c0-0.285,0.091-0.487,0.273-0.607l0.197-0.128
			c0.034-0.028,0.051-0.057,0.051-0.085v-0.034l-0.034-0.034l-0.197-0.12c-0.194-0.125-0.29-0.325-0.29-0.598
			c0-0.581,0.342-0.871,1.025-0.871c0.701,0,1.051,0.273,1.051,0.82c0,0.285-0.105,0.501-0.316,0.649l-0.171,0.12
			c-0.028,0.017-0.046,0.04-0.051,0.068c0,0.04,0.051,0.088,0.154,0.145C231.762,30.24,231.89,30.465,231.89,30.79z M231.873,37.471
			c0,0.564-0.33,0.846-0.991,0.846c-0.712,0-1.068-0.271-1.068-0.812c0-0.552,0.319-0.829,0.957-0.829
			C231.506,36.676,231.873,36.941,231.873,37.471z"/>
		<path fill="#FFFFFF" d="M237.965,32.456c0,0.57-0.316,0.854-0.948,0.854h-1.504c-0.034,0-0.051,0.02-0.051,0.06
			c0,0.034,0.039,0.085,0.117,0.154c0.184,0.148,0.276,0.359,0.276,0.632c0,0.319-0.109,0.538-0.328,0.658l-0.185,0.111
			c-0.011,0.011-0.02,0.028-0.025,0.051c0,0.034,0.009,0.057,0.025,0.068l0.218,0.162c0.196,0.137,0.294,0.345,0.294,0.624
			c0,0.302-0.154,0.552-0.462,0.752c-0.045,0.017-0.07,0.043-0.076,0.077c0,0.034,0.064,0.091,0.193,0.171
			c0.23,0.142,0.345,0.365,0.345,0.666c0,0.342-0.15,0.592-0.451,0.752c-0.114,0.057-0.329,0.085-0.647,0.085
			c-0.664,0-0.996-0.278-0.996-0.836c0-0.324,0.159-0.569,0.478-0.734c0.046-0.034,0.068-0.062,0.068-0.085
			c0-0.04-0.043-0.082-0.128-0.128c-0.279-0.148-0.419-0.387-0.419-0.717c0-0.33,0.128-0.563,0.384-0.7
			c0.108-0.051,0.162-0.097,0.162-0.136c-0.006-0.028-0.017-0.051-0.034-0.068l-0.231-0.145c-0.188-0.136-0.282-0.35-0.282-0.64
			c0-0.336,0.159-0.586,0.478-0.751c0.028-0.023,0.057-0.048,0.085-0.077c0-0.028-0.017-0.051-0.051-0.068l-0.145-0.085
			c-0.245-0.125-0.367-0.358-0.367-0.699c0-0.358,0.145-0.603,0.436-0.734c0.074-0.028,0.111-0.063,0.111-0.103
			c0-0.028-0.06-0.077-0.179-0.145c-0.245-0.131-0.367-0.364-0.367-0.7c0-0.341,0.122-0.574,0.367-0.699
			c0.12-0.057,0.179-0.102,0.179-0.136c0-0.011-0.006-0.028-0.017-0.051l-0.214-0.119c-0.211-0.125-0.316-0.347-0.316-0.666
			c0-0.313,0.105-0.535,0.316-0.665l0.196-0.12c0.023-0.011,0.034-0.031,0.034-0.06c0-0.023-0.011-0.046-0.034-0.068l-0.214-0.12
			c-0.199-0.114-0.299-0.33-0.299-0.648c0-0.569,0.349-0.853,1.047-0.853c0.698,0,1.047,0.278,1.047,0.834
			c0,0.329-0.138,0.573-0.412,0.732c-0.09,0.051-0.137,0.085-0.143,0.102c0,0.046,0.014,0.071,0.042,0.077l0.202,0.136
			c0.207,0.142,0.311,0.358,0.311,0.647c0,0.363-0.143,0.607-0.429,0.732c-0.073,0.028-0.109,0.057-0.109,0.085
			c0,0.034,0.009,0.057,0.026,0.068l0.208,0.128c0.202,0.153,0.304,0.378,0.304,0.673c0,0.25-0.065,0.431-0.196,0.545
			c-0.131,0.113-0.197,0.185-0.197,0.213c0,0.057,0.023,0.085,0.068,0.085h1.606c0.222,0,0.416,0.08,0.581,0.239
			C237.882,32.034,237.965,32.228,237.965,32.456z M239.221,30.738c0,0.587-0.35,0.88-1.051,0.88c-0.701,0-1.051-0.282-1.051-0.846
			c0-0.558,0.35-0.837,1.051-0.837C238.87,29.935,239.221,30.203,239.221,30.738z M239.221,34.122c0,0.581-0.345,0.871-1.034,0.871
			c-0.712,0-1.068-0.279-1.068-0.837c0-0.575,0.345-0.863,1.034-0.863C238.865,33.293,239.221,33.569,239.221,34.122z
			 M240.904,29.081c0,0.57-0.333,0.854-1,0.854c-0.302,0-0.53-0.04-0.683-0.12c-0.279-0.154-0.419-0.393-0.419-0.718
			c0-0.564,0.356-0.846,1.068-0.846C240.559,28.252,240.904,28.528,240.904,29.081z M240.904,35.813
			c0,0.245-0.094,0.461-0.282,0.649c-0.125,0.131-0.427,0.197-0.906,0.197c-0.262,0-0.477-0.078-0.645-0.235
			c-0.168-0.157-0.252-0.355-0.252-0.594c0-0.558,0.367-0.837,1.102-0.837c0.29,0,0.527,0.075,0.709,0.226
			C240.813,35.37,240.904,35.568,240.904,35.813z M242.578,27.398c0,0.256-0.097,0.473-0.29,0.649
			c-0.142,0.125-0.424,0.188-0.846,0.188c-0.627,0-0.94-0.268-0.94-0.803c0-0.37,0.151-0.627,0.453-0.769
			c0.125-0.057,0.325-0.085,0.598-0.085C242.236,26.578,242.578,26.851,242.578,27.398z M242.578,37.496
			c0,0.347-0.134,0.592-0.402,0.735c-0.131,0.068-0.339,0.103-0.624,0.103c-0.234,0-0.416-0.023-0.547-0.068
			c-0.336-0.131-0.504-0.382-0.504-0.752c0-0.216,0.075-0.404,0.226-0.564c0.151-0.159,0.332-0.245,0.543-0.256
			C242.142,36.642,242.578,36.91,242.578,37.496z"/>
	</g>
	<path fill="none" d="M35.542,33.269c0.207-0.791,0.169-1.147,0.169-1.147c-0.072-0.608-0.483-0.553-0.483-0.553
		c-0.284,0.042-0.324,0.428-0.324,0.428c-0.216,0.892,0.372,1.258,0.372,1.258c0.056,0.034,0.101,0.059,0.15,0.083
		C35.441,33.343,35.515,33.367,35.542,33.269z"/>
	<path fill="none" d="M35.229,31.568c-0.284,0.042-0.324,0.428-0.324,0.428c-0.216,0.892,0.372,1.258,0.372,1.258
		c0.056,0.034,0.101,0.059,0.15,0.083c0.015,0.006,0.089,0.029,0.116-0.069c0.207-0.791,0.169-1.147,0.169-1.147
		C35.639,31.513,35.229,31.568,35.229,31.568z"/>
	<path fill="none" d="M35.229,31.568c-0.237,0.04-0.324,0.428-0.324,0.428c-0.216,0.892,0.372,1.258,0.372,1.258
		c0.056,0.034,0.101,0.059,0.15,0.083c0.015,0.006,0.089,0.029,0.116-0.069c0.207-0.791,0.169-1.147,0.169-1.147
		C35.639,31.513,35.229,31.568,35.229,31.568z"/>
	<path fill="none" d="M35.229,31.568c-0.237,0.04-0.324,0.428-0.324,0.428c-0.216,0.892,0.372,1.258,0.372,1.258
		c0.056,0.034,0.101,0.059,0.15,0.083c0.015,0.006,0.089,0.029,0.116-0.069c0.207-0.791,0.169-1.147,0.169-1.147
		C35.639,31.513,35.229,31.568,35.229,31.568z"/>
	<path fill="none" d="M35.229,31.568c-0.237,0.04-0.324,0.428-0.324,0.428c-0.216,0.892,0.372,1.258,0.372,1.258
		c0.056,0.034,0.101,0.059,0.15,0.083c0.015,0.006,0.089,0.029,0.116-0.069c0.207-0.791,0.169-1.147,0.169-1.147
		C35.639,31.513,35.229,31.568,35.229,31.568z"/>
	<path fill="none" d="M43.721,30.735c0.017-0.178-0.096-0.213-0.198-0.171c-0.099,0.04-0.213,0.142-0.213,0.142
		c-1.144,1.045-1.934,3.426-1.992,3.605c0,0-0.014,0.035,0.01,0.049c0.01,0.006,0.026,0.005,0.054-0.02l-0.001,0.002
		C43.578,32.445,43.721,30.735,43.721,30.735z"/>
	<path fill="none" d="M35.229,31.568c-0.237,0.04-0.324,0.428-0.324,0.428c-0.216,0.892,0.372,1.258,0.372,1.258
		c0.056,0.034,0.101,0.059,0.15,0.083c0.015,0.006,0.089,0.029,0.116-0.069c0.207-0.791,0.169-1.147,0.169-1.147
		C35.639,31.513,35.229,31.568,35.229,31.568z"/>
	<path fill="none" d="M43.721,30.735c0.017-0.178-0.096-0.213-0.198-0.171c-0.099,0.04-0.213,0.142-0.213,0.142
		c-1.144,1.045-1.934,3.426-1.992,3.605c0,0-0.014,0.035,0.01,0.049c0.01,0.006,0.026,0.005,0.054-0.02l-0.001,0.002
		C43.578,32.445,43.721,30.735,43.721,30.735z"/>
	<path fill="none" d="M35.229,31.568c-0.237,0.04-0.324,0.428-0.324,0.428c-0.216,0.892,0.372,1.258,0.372,1.258
		c0.056,0.034,0.101,0.059,0.15,0.083c0.015,0.006,0.089,0.029,0.116-0.069c0.207-0.791,0.169-1.147,0.169-1.147
		C35.639,31.513,35.229,31.568,35.229,31.568z"/>
	<path fill="none" d="M35.229,31.568c-0.237,0.04-0.324,0.428-0.324,0.428c-0.216,0.892,0.372,1.258,0.372,1.258
		c0.056,0.034,0.101,0.059,0.15,0.083c0.015,0.006,0.089,0.029,0.116-0.069c0.207-0.791,0.169-1.147,0.169-1.147
		C35.639,31.513,35.229,31.568,35.229,31.568z"/>
	<path fill="none" d="M43.721,30.735c0.017-0.178-0.096-0.213-0.198-0.171c-0.099,0.04-0.213,0.142-0.213,0.142
		c-1.144,1.045-1.934,3.426-1.992,3.605c0,0-0.014,0.035,0.01,0.049c0.01,0.006,0.026,0.005,0.054-0.02l-0.001,0.002
		C43.578,32.445,43.721,30.735,43.721,30.735z"/>
	<path fill="none" d="M43.721,30.735c0.017-0.178-0.096-0.213-0.198-0.171c-0.099,0.04-0.213,0.142-0.213,0.142
		c-1.144,1.045-1.934,3.426-1.992,3.605c0,0-0.014,0.035,0.01,0.049c0.01,0.006,0.026,0.005,0.054-0.02l-0.001,0.002
		C43.578,32.445,43.721,30.735,43.721,30.735z"/>
	<path fill="none" d="M35.229,31.568c-0.237,0.04-0.324,0.428-0.324,0.428c-0.216,0.892,0.372,1.258,0.372,1.258
		c0.056,0.034,0.101,0.059,0.15,0.083c0.015,0.006,0.089,0.029,0.116-0.069c0.207-0.791,0.169-1.147,0.169-1.147
		C35.639,31.513,35.229,31.568,35.229,31.568z"/>
	<path fill="none" d="M43.721,30.735c0.017-0.178-0.096-0.213-0.198-0.171c-0.099,0.04-0.213,0.142-0.213,0.142
		c-1.144,1.045-1.934,3.426-1.992,3.605c0,0-0.014,0.035,0.01,0.049c0.01,0.006,0.026,0.005,0.054-0.02l-0.001,0.002
		C43.578,32.445,43.721,30.735,43.721,30.735z"/>
	<path fill="none" d="M35.229,31.568c-0.237,0.04-0.324,0.428-0.324,0.428c-0.216,0.892,0.372,1.258,0.372,1.258
		c0.056,0.034,0.101,0.059,0.15,0.083c0.015,0.006,0.089,0.029,0.116-0.069c0.207-0.791,0.169-1.147,0.169-1.147
		C35.639,31.513,35.229,31.568,35.229,31.568z"/>
	<path fill="none" d="M43.721,30.735c0.017-0.178-0.096-0.213-0.198-0.171c-0.099,0.04-0.213,0.142-0.213,0.142
		c-1.144,1.045-1.934,3.426-1.992,3.605c0,0-0.014,0.035,0.01,0.049c0.01,0.006,0.026,0.005,0.054-0.02l-0.001,0.002
		C43.578,32.445,43.721,30.735,43.721,30.735z"/>
	<path fill="none" d="M35.229,31.568c-0.237,0.04-0.324,0.428-0.324,0.428c-0.216,0.892,0.372,1.258,0.372,1.258
		c0.056,0.034,0.101,0.059,0.15,0.083c0.015,0.006,0.089,0.029,0.116-0.069c0.207-0.791,0.169-1.147,0.169-1.147
		C35.639,31.513,35.229,31.568,35.229,31.568z"/>
	<path fill="none" d="M57.371,30.691c0.052-0.144-0.005-0.219-0.02-0.236c-0.154-0.143-0.287-0.201-0.405-0.251
		c-1.175-0.491-2.45,3.547-2.45,3.547c-0.319,0.943,0.306,0.996,0.306,0.996c0.555,0.035,1.374-0.891,1.533-1.136
		c0.159-0.245,0.398-1.003,0.398-1.003c0.183-0.615,0.401-1.26,0.639-1.919L57.371,30.691z"/>
	<path fill="none" d="M35.229,31.568c-0.237,0.04-0.324,0.428-0.324,0.428c-0.216,0.892,0.372,1.258,0.372,1.258
		c0.056,0.034,0.101,0.059,0.15,0.083c0.015,0.006,0.089,0.029,0.116-0.069c0.207-0.791,0.169-1.147,0.169-1.147
		C35.639,31.513,35.229,31.568,35.229,31.568z"/>
	<path fill="none" d="M43.721,30.735c0.017-0.178-0.096-0.213-0.198-0.171c-0.099,0.04-0.213,0.142-0.213,0.142
		c-1.144,1.045-1.934,3.426-1.992,3.605c0,0-0.014,0.035,0.01,0.049c0.01,0.006,0.026,0.005,0.054-0.02l-0.001,0.002
		C43.578,32.445,43.721,30.735,43.721,30.735z"/>
	<path fill="none" d="M57.351,30.455c-0.154-0.143-0.287-0.201-0.405-0.251c-1.175-0.491-2.45,3.547-2.45,3.547
		c-0.299,1.027,0.306,0.996,0.306,0.996c0.555,0.035,1.374-0.891,1.533-1.136c0.159-0.245,0.398-1.003,0.398-1.003
		c0.183-0.615,0.401-1.26,0.639-1.919l-0.001,0C57.43,30.535,57.366,30.471,57.351,30.455z"/>
	<path fill="none" d="M43.721,30.735c0.017-0.178-0.096-0.213-0.198-0.171c-0.099,0.04-0.213,0.142-0.213,0.142
		c-1.144,1.045-1.934,3.426-1.992,3.605c0,0-0.014,0.035,0.01,0.049c0.01,0.006,0.026,0.005,0.054-0.02l-0.001,0.002
		C43.578,32.445,43.721,30.735,43.721,30.735z"/>
	<path fill="none" d="M35.229,31.568c-0.237,0.04-0.324,0.428-0.324,0.428c-0.216,0.892,0.372,1.258,0.372,1.258
		c0.056,0.034,0.101,0.059,0.15,0.083c0.015,0.006,0.089,0.029,0.116-0.069c0.207-0.791,0.169-1.147,0.169-1.147
		C35.639,31.513,35.229,31.568,35.229,31.568z"/>
	<path fill="none" d="M57.351,30.455c-0.154-0.143-0.287-0.201-0.405-0.251c-1.175-0.491-2.45,3.547-2.45,3.547
		c-0.299,1.027,0.306,0.996,0.306,0.996c0.555,0.035,1.374-0.891,1.533-1.136c0.159-0.245,0.398-1.003,0.398-1.003
		c0.183-0.615,0.401-1.26,0.639-1.919l-0.001,0C57.43,30.535,57.366,30.471,57.351,30.455z"/>
	<path fill="none" d="M43.721,30.735c0.017-0.178-0.096-0.213-0.198-0.171c-0.099,0.04-0.213,0.142-0.213,0.142
		c-1.144,1.045-1.934,3.426-1.992,3.605c0,0-0.014,0.035,0.01,0.049c0.01,0.006,0.026,0.005,0.054-0.02l-0.001,0.002
		C43.578,32.445,43.721,30.735,43.721,30.735z"/>
	<path fill="none" d="M57.351,30.455c-0.154-0.143-0.287-0.201-0.405-0.251c-1.175-0.491-2.45,3.547-2.45,3.547
		c-0.299,1.027,0.306,0.996,0.306,0.996c0.555,0.035,1.374-0.891,1.533-1.136c0.159-0.245,0.398-1.003,0.398-1.003
		c0.183-0.615,0.401-1.26,0.639-1.919l-0.001,0C57.43,30.535,57.366,30.471,57.351,30.455z"/>
	<path fill="none" d="M35.229,31.568c-0.237,0.04-0.324,0.428-0.324,0.428c-0.216,0.892,0.372,1.258,0.372,1.258
		c0.056,0.034,0.101,0.059,0.15,0.083c0.015,0.006,0.089,0.029,0.116-0.069c0.207-0.791,0.169-1.147,0.169-1.147
		C35.639,31.513,35.229,31.568,35.229,31.568z"/>
	<path fill="none" d="M43.721,30.735c0.017-0.178-0.096-0.213-0.198-0.171c-0.099,0.04-0.213,0.142-0.213,0.142
		c-1.144,1.045-1.934,3.426-1.992,3.605c0,0-0.014,0.035,0.01,0.049c0.01,0.006,0.026,0.005,0.054-0.02l-0.001,0.002
		C43.578,32.445,43.721,30.735,43.721,30.735z"/>
	<path fill="none" d="M57.351,30.455c-0.154-0.143-0.287-0.201-0.405-0.251c-1.175-0.491-2.45,3.547-2.45,3.547
		c-0.299,1.027,0.306,0.996,0.306,0.996c0.555,0.035,1.374-0.891,1.533-1.136c0.159-0.245,0.398-1.003,0.398-1.003
		c0.183-0.615,0.401-1.26,0.639-1.919l-0.001,0C57.43,30.535,57.366,30.471,57.351,30.455z"/>
	<path fill="none" d="M35.229,31.568c-0.237,0.04-0.324,0.428-0.324,0.428c-0.216,0.892,0.372,1.258,0.372,1.258
		c0.056,0.034,0.101,0.059,0.15,0.083c0.015,0.006,0.089,0.029,0.116-0.069c0.207-0.791,0.169-1.147,0.169-1.147
		C35.639,31.513,35.229,31.568,35.229,31.568z"/>
	<path fill="none" d="M35.229,31.568c-0.237,0.04-0.324,0.428-0.324,0.428c-0.216,0.892,0.372,1.258,0.372,1.258
		c0.056,0.034,0.101,0.059,0.15,0.083c0.015,0.006,0.089,0.029,0.116-0.069c0.207-0.791,0.169-1.147,0.169-1.147
		C35.639,31.513,35.229,31.568,35.229,31.568z"/>
	<path fill="none" d="M43.721,30.735c0.017-0.178-0.096-0.213-0.198-0.171c-0.099,0.04-0.213,0.142-0.213,0.142
		c-1.144,1.045-1.934,3.426-1.992,3.605c0,0-0.014,0.035,0.01,0.049c0.01,0.006,0.026,0.005,0.054-0.02l-0.001,0.002
		C43.578,32.445,43.721,30.735,43.721,30.735z"/>
	<path fill="none" d="M57.351,30.455c-0.154-0.143-0.287-0.201-0.405-0.251c-1.175-0.491-2.45,3.547-2.45,3.547
		c-0.299,1.027,0.306,0.996,0.306,0.996c0.555,0.035,1.374-0.891,1.533-1.136c0.159-0.245,0.398-1.003,0.398-1.003
		c0.183-0.615,0.401-1.26,0.639-1.919l-0.001,0C57.43,30.535,57.366,30.471,57.351,30.455z"/>
	<path fill="none" d="M62.475,30.779c-0.063-0.093-0.117,0.033-0.117,0.033h0c-0.529,1.423-1.009,2.285-1.175,2.565l0,0
		c0,0-0.062,0.111-0.022,0.2c0.363,0.798,1.444,0.554,1.444,0.554c1.139-0.332,0.903-1.468,0.903-1.468
		C63.379,32.158,62.847,31.322,62.475,30.779z"/>
	<path fill="none" d="M57.351,30.455c-0.154-0.143-0.287-0.201-0.405-0.251c-1.175-0.491-2.45,3.547-2.45,3.547
		c-0.299,1.027,0.306,0.996,0.306,0.996c0.555,0.035,1.374-0.891,1.533-1.136c0.159-0.245,0.398-1.003,0.398-1.003
		c0.183-0.615,0.401-1.26,0.639-1.919l-0.001,0C57.43,30.535,57.366,30.471,57.351,30.455z"/>
	<path fill="none" d="M43.721,30.735c0.017-0.178-0.096-0.213-0.198-0.171c-0.099,0.04-0.213,0.142-0.213,0.142
		c-1.144,1.045-1.934,3.426-1.992,3.605c0,0-0.014,0.035,0.01,0.049c0.01,0.006,0.026,0.005,0.054-0.02l-0.001,0.002
		C43.578,32.445,43.721,30.735,43.721,30.735z"/>
	<path fill="none" d="M35.229,31.568c-0.237,0.04-0.324,0.428-0.324,0.428c-0.216,0.892,0.372,1.258,0.372,1.258
		c0.056,0.034,0.101,0.059,0.15,0.083c0.015,0.006,0.089,0.029,0.116-0.069c0.207-0.791,0.169-1.147,0.169-1.147
		C35.639,31.513,35.229,31.568,35.229,31.568z"/>
	<path fill="none" d="M62.475,30.779c-0.063-0.093-0.117,0.033-0.117,0.033h0c-0.529,1.423-1.009,2.285-1.175,2.565l0,0
		c0,0-0.062,0.111-0.022,0.2c0.363,0.798,1.444,0.554,1.444,0.554c1.139-0.332,0.903-1.468,0.903-1.468
		C63.379,32.158,62.847,31.322,62.475,30.779z"/>
	<path fill="none" d="M43.721,30.735c0.017-0.178-0.096-0.213-0.198-0.171c-0.099,0.04-0.213,0.142-0.213,0.142
		c-1.144,1.045-1.934,3.426-1.992,3.605c0,0-0.014,0.035,0.01,0.049c0.01,0.006,0.026,0.005,0.054-0.02l-0.001,0.002
		C43.578,32.445,43.721,30.735,43.721,30.735z"/>
	<path fill="none" d="M57.351,30.455c-0.154-0.143-0.287-0.201-0.405-0.251c-1.175-0.491-2.45,3.547-2.45,3.547
		c-0.299,1.027,0.306,0.996,0.306,0.996c0.555,0.035,1.374-0.891,1.533-1.136c0.159-0.245,0.398-1.003,0.398-1.003
		c0.183-0.615,0.401-1.26,0.639-1.919l-0.001,0C57.43,30.535,57.366,30.471,57.351,30.455z"/>
	<path fill="none" d="M35.229,31.568c-0.237,0.04-0.324,0.428-0.324,0.428c-0.216,0.892,0.372,1.258,0.372,1.258
		c0.056,0.034,0.101,0.059,0.15,0.083c0.015,0.006,0.089,0.029,0.116-0.069c0.207-0.791,0.169-1.147,0.169-1.147
		C35.639,31.513,35.229,31.568,35.229,31.568z"/>
	<path fill="none" d="M62.475,30.779c-0.063-0.093-0.117,0.033-0.117,0.033h0c-0.529,1.423-1.009,2.285-1.175,2.565l0,0
		c0,0-0.062,0.111-0.022,0.2c0.363,0.798,1.444,0.554,1.444,0.554c1.139-0.332,0.903-1.468,0.903-1.468
		C63.379,32.158,62.847,31.322,62.475,30.779z"/>
	<g>
		<path fill="#FFFFFF" d="M57.351,33.144c-0.154-0.143-0.287-0.201-0.405-0.251c-1.175-0.491-2.45,3.547-2.45,3.547
			c-0.299,1.027,0.306,0.996,0.306,0.996c0.555,0.035,1.374-0.891,1.533-1.136c0.159-0.245,0.398-1.003,0.398-1.003
			c0.183-0.615,0.401-1.26,0.639-1.919l-0.001,0C57.43,33.224,57.366,33.161,57.351,33.144z"/>
		<path fill="#FFFFFF" d="M43.721,36.191c0.017-0.178-0.096-0.213-0.198-0.171c-0.099,0.04-0.213,0.142-0.213,0.142
			c-1.144,1.045-1.934,3.426-1.992,3.605c0,0-0.014,0.035,0.01,0.049c0.01,0.006,0.026,0.005,0.054-0.02l-0.001,0.002
			C43.578,37.9,43.721,36.191,43.721,36.191z"/>
		<path fill="#FFFFFF" d="M35.229,36.847c-0.237,0.04-0.324,0.428-0.324,0.428c-0.216,0.892,0.372,1.258,0.372,1.258
			c0.056,0.034,0.101,0.059,0.15,0.083c0.015,0.006,0.089,0.029,0.116-0.069c0.207-0.791,0.169-1.147,0.169-1.147
			C35.639,36.792,35.229,36.847,35.229,36.847z"/>
		<path fill="#FFFFFF" d="M62.475,32.001c-0.063-0.092-0.117,0.033-0.117,0.033h0c-0.529,1.423-1.009,2.285-1.175,2.565
			c0,0-0.062,0.111-0.022,0.2c0.363,0.798,1.444,0.554,1.444,0.554c1.139-0.332,0.903-1.468,0.903-1.468
			C63.379,33.38,62.847,32.544,62.475,32.001z"/>
		<path fill="#FFFFFF" d="M67.374,34.465c-0.067,0-0.115,0.007-0.142,0.013v0.317h0.122c0.142,0,0.257-0.047,0.257-0.162
			C67.61,34.533,67.536,34.465,67.374,34.465z"/>
		<path fill="#FFFFFF" d="M67.401,33.959h-0.007c-0.479,0-0.851,0.398-0.851,0.884c0,0.493,0.371,0.884,0.864,0.884
			c0.479,0.007,0.844-0.391,0.844-0.877C68.252,34.357,67.887,33.959,67.401,33.959z M67.664,35.417
			c-0.034-0.041-0.054-0.135-0.088-0.27c-0.02-0.115-0.088-0.169-0.229-0.169h-0.121v0.439h-0.256V34.31
			c0.101-0.014,0.243-0.034,0.425-0.034c0.209,0,0.304,0.034,0.378,0.088c0.067,0.047,0.115,0.128,0.115,0.236
			c0,0.135-0.101,0.223-0.229,0.263v0.014c0.108,0.034,0.162,0.121,0.196,0.27c0.034,0.169,0.061,0.229,0.081,0.27H67.664z"/>
		<path fill="#FFFFFF" d="M79.495,50.593V14.739c0-2.078-1.89-2.74-1.89-2.74L44.833,4.07c-2.492-0.52-4.594,0-4.594,0L7.927,12.023
			l-0.653,0.158c0,0-1.777,0.622-1.884,2.556c-0.022,0.22-0.013,0.359-0.013,0.359L5.365,50.073c0,2.74,2.185,3.118,2.185,3.118
			l32.736,7.692c2.173,0.425,4.547,0,4.547,0l32.441-7.692C79.542,52.766,79.495,50.593,79.495,50.593z M53.891,9.154
			c0,0.006,0.001,0.011,0.001,0.017C53.892,9.165,53.892,9.161,53.891,9.154L53.891,9.154z M52.669,21.802L52.669,21.802
			l0.982-6.484c0.001-0.004,0.043-0.251,0.258-0.251h2.549c0.22,0,0.262,0.249,0.262,0.249l1.005,5.912
			c0.044,0.261-0.215,0.291-0.215,0.291v0.001c-0.533,0.051-1.059,0.103-1.578,0.156v0c-0.208,0.021-0.255-0.194-0.255-0.194v0
			l-0.082-0.543c-0.117-0.754-0.234-1.786-0.339-2.973l0,0c-0.017-0.191-0.054-0.193-0.056-0.193c-0.036,0-0.05,0.096-0.055,0.153
			c-0.107,1.456-0.169,2.002-0.291,3.014l-0.085,0.63c-0.031,0.227-0.244,0.258-0.244,0.258l0,0
			c-0.558,0.062-1.108,0.126-1.651,0.191v-0.001C52.636,22.045,52.669,21.802,52.669,21.802z M49.076,15.303
			c0.007-0.053,0.043-0.234,0.247-0.234l-0.001-0.002h1.815l-0.001,0.002c0.206,0,0.241,0.185,0.247,0.236v6.581
			c0,0.323-0.244,0.349-0.244,0.349v0.001c-0.629,0.082-1.247,0.167-1.854,0.253l0-0.001c-0.203,0.029-0.208-0.2-0.208-0.2V15.303z
			 M41.434,15.317c0,0,0.007-0.24,0.255-0.249h2.734c1.865,0,2.627,0.189,3.129,0.821c0.541,0.652,0.682,1.473,0.682,4.04v2.496
			c0,0.214-0.21,0.248-0.21,0.248l0,0.001c-0.636,0.096-1.261,0.194-1.872,0.293l0,0c-0.209,0.034-0.225-0.229-0.225-0.229v-3.587
			c0-1.852-0.281-2.23-1.625-2.23h-0.352c-0.21,0-0.209,0.239-0.209,0.239v5.965c0,0.265-0.24,0.302-0.24,0.302l0,0
			c-0.624,0.114-1.233,0.23-1.828,0.348v0c-0.227,0.045-0.239-0.244-0.239-0.244V15.317z M34.474,15.317
			c0,0,0.001-0.239,0.247-0.249h5.681c0,0,0.27,0.006,0.27,0.249v1.76c0,0.243-0.27,0.242-0.27,0.242h-3.383
			c-0.242,0-0.238,0.251-0.238,0.251v3.082c0,0,0,0.223,0.227,0.223h3.158c0,0,0.285,0.008,0.285,0.273v1.498
			c0,0.268-0.285,0.269-0.285,0.269h-3.158c-0.225,0-0.227,0.214-0.227,0.214v1.457c0,0.257-0.238,0.32-0.238,0.32l0,0
			c-0.633,0.156-1.245,0.312-1.835,0.469l0,0c-0.229,0.06-0.233-0.207-0.233-0.207V15.317z M23.983,15.317
			c0,0,0.01-0.249,0.248-0.249l0,0h3.09c0,0,0.212,0,0.252,0.249l0.702,4.422c0.149,0.9,0.264,1.819,0.392,3.146v0
			c0.005,0.049,0.01,0.1,0.015,0.151c0.008,0.051,0.02,0.075,0.034-0.023c0.005-0.042,0.009-0.086,0.014-0.126c0,0,0-0.001,0-0.002
			c0.156-1.43,0.221-1.984,0.408-3.146l0.703-4.422c0-0.002,0.042-0.249,0.263-0.249h3.12c0,0,0.247,0.004,0.247,0.249v10.121
			c0,0.289-0.269,0.351-0.269,0.351l0,0c-0.565,0.16-1.108,0.321-1.631,0.48l0,0c-0.301,0.091-0.307-0.27-0.307-0.27v-4.198
			c0-0.629,0.027-1.842,0.062-2.882c-0.002,0-0.006-0.001-0.006-0.001s0.018-0.264-0.048-0.269c0,0-0.085-0.022-0.111,0.249
			l-0.003-0.004c-0.191,1.122-0.328,1.936-0.476,2.759l-0.854,4.878c-0.054,0.311-0.315,0.397-0.315,0.397l0,0
			c-0.487,0.164-0.953,0.326-1.396,0.487l0,0c-0.308,0.11-0.398-0.25-0.398-0.253l-0.988-5.698c-0.08-0.547-0.18-1.094-0.281-1.641
			l-0.16-0.968c-0.005-0.028-0.009-0.055-0.014-0.083c-0.035-0.134-0.09-0.122-0.09-0.122c-0.055,0.004-0.052,0.179-0.049,0.243
			l0.001,0.022l0,0.003l0.012,0.253c0.02,0.463,0.04,1.557,0.04,2.293v6.272c0,0.41-0.33,0.545-0.33,0.545l0,0.001
			c-0.564,0.23-1.082,0.453-1.55,0.663l0,0c-0.319,0.142-0.328-0.28-0.328-0.28V15.317z M28.323,53.25
			c0.005,0.664-0.366,0.663-0.366,0.663c-1.653,0.034-2.633-0.932-2.633-0.932c-0.639-0.552-0.474-1.658-0.474-1.658
			c0.566-3.916,2.633-8.703,2.633-8.703c2.192-5.452,5.732-10.927,6.752-12.459c0.034-0.051,0.067-0.1,0.035-0.147
			c-0.022-0.032-0.062-0.026-0.086-0.019C24.549,33.709,21.65,36.94,21.65,36.94c-0.482,0.447-0.772,0.139-0.913-0.272
			C20.634,36.366,20.635,36,20.635,36c-0.004-1.837,0.63-2.952,0.99-3.63c0.36-0.678,1.196-1.203,1.196-1.203
			c11.612-6.32,34.251-8.61,34.251-8.61c0.887-0.091,1.119,0.066,1.119,0.066c0.362,0.226,0.586,0.509,0.586,0.509
			c0.214,0.326-0.354,0.421-0.354,0.421c-10.555,1.746-18.814,4.342-21.309,5.368c-0.155,0.064-0.268,0.199-0.296,0.239
			c-3.529,5.476-6.827,14.745-6.827,14.745C28.251,48.961,28.323,53.25,28.323,53.25z M65.093,35.386
			c-0.493,1.384-2.439,1.735-2.439,1.735c-1.521,0.278-2.179-0.659-2.339-0.94c-0.037-0.077-0.108,0-0.108,0l0,0
			c-1.006,1.169-1.583,1.743-1.583,1.743c-0.741,0.685-1.372,0.717-1.372,0.717c-0.483,0.03-0.71-0.361-0.791-0.565l0,0
			c-0.046-0.144-0.173,0-0.173,0l0,0c-1.589,1.637-2.646,1.616-2.646,1.616c-0.493-0.019-0.719-0.362-0.849-0.806l0,0
			c-0.041-0.121-0.111-0.048-0.14-0.01c-0.004,0.005-0.008,0.011-0.011,0.016c-0.001,0.001-0.002,0.002-0.002,0.002
			c-0.525,0.741-1.081,1.278-1.081,1.278c-0.79,0.733-1.494,0.565-1.494,0.565c-0.549-0.086-0.724-0.416-0.763-0.477
			c-0.632-0.978,1.503-5.27,1.503-5.27c0.176-0.371,0.1-0.481,0.1-0.481c-0.338-0.169-1.498,0.809-1.498,0.809
			c-0.743,0.653-1.132,1.264-1.492,2.208c-0.069,0.182-0.094,0.298-0.094,0.298c-0.428,1.841-0.824,3.3-0.824,3.3
			c-0.153,0.559-0.581,0.851-0.581,0.851c-1.064,0.753-1.69,0.629-1.69,0.629c-0.322-0.067-0.059-0.641-0.059-0.641
			c0.389-0.93,0.713-1.891,1.003-2.786c0.123-0.379-0.096-0.012-0.096-0.012v-0.001c-1.527,2.531-3.442,4.32-3.442,4.32
			c-0.79,0.714-1.822,0.381-1.88,0.362c-0.367-0.096-0.621-0.447-0.739-0.784l0,0c-0.035-0.094-0.115,0.008-0.115,0.008
			c-0.922,1.183-1.919,2.084-1.919,2.084c-0.576,0.525-1.159,0.538-1.159,0.538c-0.733,0.014-0.692-1.072-0.692-1.072
			c0.113-1.892,1.643-4.227,1.643-4.227c0.075-0.111-0.016-0.221-0.016-0.221c-0.045-0.058-0.145-0.041-0.145-0.041
			c-0.345,0.076-0.649,0.11-0.911,0.121h0.001c-0.127,0.007-0.185,0.154-0.185,0.154h0c-1.847,4.827-3.634,6.176-3.634,6.176
			c-0.553,0.457-0.969,0.401-0.969,0.401c-1.329-0.138-1.186-1.423-1.186-1.423c0.004-0.307,0.333-0.401,0.333-0.401
			c2.629-0.967,4.192-4.503,4.192-4.503c0.057-0.121,0.108-0.237,0.158-0.351c0.091-0.217-0.05-0.294-0.05-0.294l0.001-0.001
			c-1.968-1.154-0.847-3.553-0.847-3.553c0.392-0.815,1.121-0.953,1.121-0.953c0.552-0.152,0.969,0.069,0.969,0.069
			c1.183,0.497,0.539,3.053,0.539,3.053c-0.013,0.065-0.019,0.093-0.025,0.118c-0.006,0.05,0.003,0.093,0.068,0.091
			c0.809-0.073,1.417-0.5,1.417-0.5c0.271-0.18,0.393-0.04,0.494,0.097c0.102,0.137,0.308,0.76,0.354,0.967
			c0.046,0.207-0.097,0.47-0.097,0.47c-0.758,1.243-1.507,2.749-1.507,2.749c-0.066,0.145-0.113,0.27-0.147,0.38
			c-0.029,0.109-0.122,0.531,0.14,0.58c0,0,0.215,0.039,0.567-0.256c0,0,0.832-0.716,1.311-1.261c0,0,0.107-0.104,0.114-0.31l0,0
			c0.032-1.6,0.746-3.275,0.746-3.275c1.409-3.044,3.091-3.452,3.091-3.452c0.728-0.281,1.26,0,1.26,0
			c0.411,0.185,0.421,0.659,0.421,0.659c-0.01,1.542-1.042,3.049-1.042,3.049c-0.88,1.348-1.873,2.149-2.331,2.527
			c0,0-0.074,0.066-0.045,0.148c0.114,0.33,0.237,0.414,0.237,0.414c0.327,0.232,1.01-0.504,1.01-0.504
			c1.966-2.006,3.589-5.12,4.139-6.262c0.138-0.286,0.162-0.399,0.163-0.403c0.06-0.226,0.103-0.647,0.103-0.647
			c0.026-0.418,1.222-0.808,1.222-0.808c0.623-0.165,0.41,0.843,0.41,0.843c-0.057,0.268-0.052,0.218-0.133,0.565l-0.032,0.135
			c0,0-0.047,0.199,0.032,0.073c0.656-0.918,1.543-1.627,1.543-1.627c1.15-0.854,1.869-0.385,1.869-0.385
			c0.86,0.449,0.011,2.393,0.011,2.393c-0.613,1.497-0.863,2.353-0.863,2.353c-0.333,1.053,0.083,1.088,0.083,1.088
			c0.38,0.068,1.067-0.75,1.379-1.159c0.091-0.117,0.105-0.285,0.105-0.285h0c0.066-0.662,0.195-1.196,0.195-1.196
			c1.079-3.899,3.46-4.647,3.46-4.647c0.682-0.231,1.265,0.031,1.549,0.278l0,0c0,0,0.092,0.08,0.148-0.057h0
			c1.636-4.067,3.711-8.047,3.711-8.047c0.315-0.601,0.741-0.812,0.741-0.812c1.543-0.836,2.351-0.276,2.351-0.276
			c0.344,0.179-0.458,1.098-0.458,1.098c-3.165,3.493-6.356,12.315-6.356,12.315c-0.213,0.621,0.075,0.676,0.075,0.676
			c0.349,0.106,1.185-0.913,1.185-0.913c0.928-1.067,2.063-3.79,2.392-4.712c0.044-0.123,0.002-0.242,0.002-0.242l0.001,0
			c-0.28-0.883-0.045-1.549-0.045-1.549c0.469-1.419,1.603-1.187,1.603-1.187c1.077,0.199,0.404,2.509,0.404,2.509
			c-0.09,0.293-0.023,0.466-0.023,0.466c0.338,0.868,1.283,2.853,1.283,2.853C65.332,34.632,65.093,35.386,65.093,35.386z
			 M67.401,35.957c-0.634,0-1.141-0.493-1.141-1.114c0-0.621,0.506-1.107,1.141-1.107h0.007c0.628,0,1.127,0.486,1.127,1.107
			C68.535,35.464,68.036,35.957,67.401,35.957z"/>
	</g>
</g>
</svg>
