<?xml version="1.0" encoding="utf-8"?>
<!DOCTYPE svg PUBLIC "-//W3C//DTD SVG 1.1//EN" "http://www.w3.org/Graphics/SVG/1.1/DTD/svg11.dtd">
<svg id="pattern-lines" xmlns="http://www.w3.org/2000/svg" version="1.1" xmlns:xlink="http://www.w3.org/1999/xlink">

	<defs>
		<link type="text/css" rel="stylesheet" xmlns="http://www.w3.org/1999/xhtml" href="../../../themes/mediakit/css/mediakit.css"/>
	</defs>

    <defs>
        <pattern id="lines-pattern" width="5" height="5" patternUnits="userSpaceOnUse">
            <polygon class="pattern-lines" fill="none" points="-71.125,-70.875 -64.04,-70.875 -64.04,-72.968 -74.04,-72.968 -74.04,-62.968 -71.125,-62.968 "/>
			<polygon class="pattern-lines" points="9.293,10 10,10 10,9.293 "/>
			<polygon class="pattern-lines" points="9.293,0 0,9.293 0,10 0.707,10 10,0.707 10,0 "/>
			<polygon class="pattern-lines" points="0,0 0,0.707 0.707,0 "/>
			<polygon class="pattern-lines" points="4.285,0 0,4.285 0,5.699 5.699,0 "/>
			<polygon class="pattern-lines" points="4.285,10 5.699,10 10,5.699 10,4.285 "/>

	    </pattern>
	    <pattern id="lines-pattern2" width="5" height="5" patternUnits="userSpaceOnUse">
            <polygon class="pattern-lines" fill="none" points="-71.125,-70.875 -64.04,-70.875 -64.04,-72.968 -74.04,-72.968 -74.04,-62.968 -71.125,-62.968 "/>
			<polygon class="pattern-lines2" points="9.293,10 10,10 10,9.293 "/>
			<polygon class="pattern-lines2" points="9.293,0 0,9.293 0,10 0.707,10 10,0.707 10,0 "/>
			<polygon class="pattern-lines2" points="0,0 0,0.707 0.707,0 "/>
			<polygon class="pattern-lines2" points="4.285,0 0,4.285 0,5.699 5.699,0 "/>
			<polygon class="pattern-lines2" points="4.285,10 5.699,10 10,5.699 10,4.285 "/>
			
	    </pattern>
    </defs>

    <rect class="pattern-apply" fill="url(#lines-pattern)"/>
    <rect class="pattern-apply2" fill="url(#lines-pattern2)"/>

</svg>