<?xml version="1.0" encoding="utf-8"?>
<!-- Generator: Adobe Illustrator 17.0.0, SVG Export Plug-In . SVG Version: 6.00 Build 0)  -->
<!DOCTYPE svg PUBLIC "-//W3C//DTD SVG 1.1//EN" "http://www.w3.org/Graphics/SVG/1.1/DTD/svg11.dtd">
<svg version="1.1" id="Layer_1" xmlns="http://www.w3.org/2000/svg" xmlns:xlink="http://www.w3.org/1999/xlink" x="0px" y="0px"
	 width="300px" height="95px" viewBox="0 0 300 95" enable-background="new 0 0 300 95" xml:space="preserve">
<g>
	<path fill-rule="evenodd" clip-rule="evenodd" fill="#BB1C80" d="M267.887,9.565c6.628-0.586,13.288,2.306,16.899,5.633
		c3.625,3.34,7.002,8.823,7.511,14.604c1.276,14.504-9.462,25.433-22.74,25.452c-13.089,0.02-23.881-10.178-22.949-24.409
		c0.692-10.546,7.674-17.795,15.855-20.445C263.993,9.904,266.181,9.715,267.887,9.565z M252.031,27.715
		c1.785-0.301,2.406-1.767,4.172-2.086c-0.299,3.948-1.047,8.541-0.417,12.726c0.67,0.183,0.432-0.541,0.835-0.626
		c8.752,5.03,12.219-18.54,0.625-13.561c0.239-0.612,0.124-0.775-0.417-1.043C256.365,25.79,252.744,25.299,252.031,27.715z
		 M276.858,27.507c0.09-0.96,0.274-5.245-1.46-4.381c-3.461,1.724-0.605,12.766-4.172,14.186c-1.404-1.619,0.739-5.124-0.417-6.467
		c-1.18,1.95-0.601,5.658-2.712,6.676c-0.46-2.061,0.015-4.054,0.417-5.842c-1.072-0.11-0.915-1.449-2.086-1.46
		c-2.194,0.985-2.941,6.642-1.043,8.554c1.205,0.162,1.298-0.788,1.877-1.252c0.412,0.354,0.478,1.051,1.461,0.834
		c0.769-0.204,0.617-1.33,1.46-1.46c0.01,0.824,0.427,1.241,1.251,1.252c1.301,0.118,1.05-1.315,2.087-1.46
		c0.153,2.967,3.52,2.076,3.963,0c0.289,0.823,0.344,1.881,1.46,1.878c0.584,0.637,1.313-1.453,1.669-1.043
		c-0.083,0.986,0.067,1.741,0.209,2.503c-2.051,0.849-5.622,2.135-5.216,5.424c0.136,1.103,1.033,2.265,2.503,2.295
		c3.031,0.061,3.648-3.512,3.546-7.093c3.049-0.572,5.18-3.781,5.424-7.302c0.073-1.064,0.265-3.03-0.835-3.755
		c0.217,4.499-0.529,9.357-4.589,10.222c-0.73-3.139,0.282-7.329,0-10.014c-1.678,1.869-0.535,6.558-2.712,7.928
		c-1.911-1.555,0.757-6.087-0.626-7.093c-1.042,2.435-0.831,6.123-3.129,7.302c-0.907-0.343-0.984-1.519-1.251-2.503
		C275.079,33.535,276.583,30.458,276.858,27.507z M271.851,27.298C268.459,27.938,273.513,30.131,271.851,27.298L271.851,27.298z"/>
	<path fill-rule="evenodd" clip-rule="evenodd" d="M53.63,25.212c-1.494,3.374-3.513,6.223-5.007,9.597
		c-7.965-4.318-17.044-4.257-22.531,0.835c-6.005,5.572-8.493,16.836-8.345,26.078c0.067,4.216,1.403,8.741,4.381,10.64
		c5.925,3.778,15.253,0.527,20.445-1.877c1.11,2.784,1.311,6.478,2.086,9.597c-8.145,2.715-19.113,4.002-26.913,1.251
		C-1.173,74.66,6.284,41.681,16.911,31.053C24.71,23.255,40.441,20.428,53.63,25.212z"/>
	<path fill-rule="evenodd" clip-rule="evenodd" d="M73.449,23.125c-1.061,7.562-2.606,14.639-3.755,22.114
		c2.594-1.839,5.233-5.061,9.389-5.633c9.877-1.36,14.806,3.475,14.186,12.726c-0.625,9.327-4.371,21.564-5.007,28.791
		c-3.407,0-6.815,0-10.222,0c1.261-6.141,2.803-15.78,4.172-23.575c0.925-5.265,1.886-10.284-4.172-10.222
		c-5.158,0.053-7.796,4.906-10.223,7.719c-1.249,8.903-3.149,17.157-4.381,26.078c-3.407,0-6.815,0-10.222,0
		c3.435-19.375,6.497-39.122,10.431-57.998C66.912,23.125,70.18,23.125,73.449,23.125z"/>
	<path fill-rule="evenodd" clip-rule="evenodd" d="M205.926,23.125c-0.263,1.129-0.502,2.28-0.626,3.547
		c-9.731,1.294-24.021-3.273-27.33,4.381c-1.121,2.592-1.128,6.214-1.669,9.388c-0.519,3.041-1.137,6.095-1.669,9.179
		c8.067,0.487,17.038,0.07,25.452,0.209c-0.145,1.176-0.34,2.302-0.626,3.337c-8.415,0-16.83,0-25.243,0
		c-1.964,9.024-3.476,18.499-5.007,27.957c-1.46,0-2.92,0-4.381,0c1.852-11.615,4.578-25.951,6.677-38.387
		c0.724-4.291,1.008-9.034,2.294-12.517C177.557,20.039,192.58,23.849,205.926,23.125z"/>
	<path fill-rule="evenodd" clip-rule="evenodd" d="M216.983,23.125c-0.161,2.273-0.636,4.232-1.043,6.259c-1.461,0-2.921,0-4.381,0
		c0.209-2.225,0.691-4.176,1.043-6.259C214.062,23.125,215.522,23.125,216.983,23.125z"/>
	<path fill-rule="evenodd" clip-rule="evenodd" d="M120.181,23.96c-0.355,3.122-1.087,5.867-1.46,8.971c-3.547,0-7.094,0-10.64,0
		c0.28-3.197,1.024-5.93,1.46-8.971C113.087,23.96,116.635,23.96,120.181,23.96z"/>
	<path fill-rule="evenodd" clip-rule="evenodd" fill="#BB1C80" d="M275.607,23.96c1.278,3.462-0.472,7.435-1.669,9.805
		C273.763,30.6,274.263,26.303,275.607,23.96z"/>
	<path fill-rule="evenodd" clip-rule="evenodd" fill="#BB1C80" d="M256.413,36.686c-0.202-4.236,0.401-7.666,0.626-11.474
		c1.715-0.681,4.049-1.266,5.424-0.417C266.625,27.365,261.889,42.116,256.413,36.686z"/>
	<path fill-rule="evenodd" clip-rule="evenodd" d="M230.96,30.01c-0.422,3.403-1.106,6.543-1.669,9.805
		c2.643,0.486,6.189,0.07,9.18,0.209c0.027,1.209-0.393,1.971-0.417,3.129c-3.06,0-6.12,0-9.18,0
		c-1.08,8.175-4.433,19.612-5.216,28.581c-0.59,6.771,3.63,8.387,9.18,9.597c-0.265,1.404-1.04,2.299-1.461,3.546
		c-6.911-1.424-12.343-3.813-11.683-12.517c0.711-9.367,4.311-20.161,5.007-28.999c-1.601-0.485-4.102-0.071-6.051-0.209
		c0.313-0.939,0.262-2.243,0.626-3.129c1.947,0,3.894,0,5.842,0c1.144-2.89,1.204-6.863,2.086-10.014
		C228.457,30.01,229.709,30.01,230.96,30.01z"/>
	<path fill-rule="evenodd" clip-rule="evenodd" fill="#BB1C80" d="M266.427,31.053c1.454,1.496,0.886,6.043-0.834,6.884
		C264.683,35.873,265.249,32.348,266.427,31.053z"/>
	<path fill-rule="evenodd" clip-rule="evenodd" d="M160.028,42.319c-1.373,3.078-3.352,5.549-4.798,8.554
		c-4.955-3.131-12.732-5.122-17.316-0.835c-4.36,4.078-7.966,19.697-1.877,23.366c5.061,3.05,11.41-0.977,15.855-2.295
		c0.734,2.673,1.271,5.545,2.086,8.137c-12.365,5.342-30.05,4.263-31.502-9.805c-1.557-15.084,7.084-28.743,21.905-29.833
		C150.752,39.138,155.038,40.988,160.028,42.319z"/>
	<path fill-rule="evenodd" clip-rule="evenodd" d="M213.854,40.024c-2.439,13.695-4.776,27.491-7.303,41.099
		c-1.251,0-2.503,0-3.755,0c2.318-13.817,4.654-27.614,7.303-41.099C211.35,40.024,212.602,40.024,213.854,40.024z"/>
	<path fill-rule="evenodd" clip-rule="evenodd" d="M117.052,40.65c-2.359,13.496-4.821,26.89-7.094,40.474
		c-3.407,0-6.815,0-10.222,0c2.485-13.44,4.558-27.292,7.302-40.474C110.375,40.65,113.713,40.65,117.052,40.65z"/>
	<path fill-rule="evenodd" clip-rule="evenodd" fill="#BB1C80" d="M280.822,41.067c0.221,2.912-0.589,6.439-3.129,5.841
		C274.67,46.198,277.652,40.465,280.822,41.067z"/>
</g>
</svg>
