<?xml version="1.0" encoding="utf-8"?>
<!-- Generator: Adobe Illustrator 17.0.0, SVG Export Plug-In . SVG Version: 6.00 Build 0)  -->
<!DOCTYPE svg PUBLIC "-//W3C//DTD SVG 1.1//EN" "http://www.w3.org/Graphics/SVG/1.1/DTD/svg11.dtd">
<svg version="1.1" id="Layer_1" xmlns="http://www.w3.org/2000/svg" xmlns:xlink="http://www.w3.org/1999/xlink" x="0px" y="0px"
	 width="792px" height="656.856px" viewBox="0 0 792 656.856" enable-background="new 0 0 792 656.856" xml:space="preserve">
<path fill="none" d="M324.438,391.595c2.167-8.268,1.77-12.001,1.77-12.001c-0.757-6.356-5.048-5.78-5.048-5.78
	c-2.967,0.436-3.392,4.481-3.392,4.481c-2.254,9.328,3.889,13.155,3.889,13.155c0.581,0.357,1.061,0.616,1.567,0.865
	C323.378,392.378,324.159,392.622,324.438,391.595z"/>
<path fill="none" d="M321.16,373.814c-2.967,0.436-3.392,4.481-3.392,4.481c-2.254,9.328,3.889,13.155,3.889,13.155
	c0.581,0.357,1.061,0.616,1.567,0.865c0.154,0.062,0.935,0.307,1.214-0.721c2.167-8.268,1.77-12.001,1.77-12.001
	C325.451,373.238,321.16,373.814,321.16,373.814z"/>
<path fill="none" d="M321.16,373.814c-2.481,0.416-3.392,4.481-3.392,4.481c-2.254,9.328,3.889,13.155,3.889,13.155
	c0.581,0.357,1.061,0.616,1.567,0.865c0.154,0.062,0.935,0.307,1.214-0.721c2.167-8.268,1.77-12.001,1.77-12.001
	C325.451,373.238,321.16,373.814,321.16,373.814z"/>
<path fill="none" d="M321.16,373.814c-2.481,0.416-3.392,4.481-3.392,4.481c-2.254,9.328,3.889,13.155,3.889,13.155
	c0.581,0.357,1.061,0.616,1.567,0.865c0.154,0.062,0.935,0.307,1.214-0.721c2.167-8.268,1.77-12.001,1.77-12.001
	C325.451,373.238,321.16,373.814,321.16,373.814z"/>
<path fill="none" d="M321.16,373.814c-2.481,0.416-3.392,4.481-3.392,4.481c-2.254,9.328,3.889,13.155,3.889,13.155
	c0.581,0.357,1.061,0.616,1.567,0.865c0.154,0.062,0.935,0.307,1.214-0.721c2.167-8.268,1.77-12.001,1.77-12.001
	C325.451,373.238,321.16,373.814,321.16,373.814z"/>
<path fill="none" d="M409.978,366.952c0.182-1.86-1.009-2.224-2.072-1.793c-1.032,0.414-2.223,1.489-2.223,1.489
	c-11.967,10.929-20.23,35.831-20.839,37.701c0,0.003-0.145,0.369,0.105,0.514c0.105,0.062,0.267,0.052,0.568-0.205
	c0,0-0.005,0.013-0.008,0.017C408.486,384.835,409.978,366.952,409.978,366.952z"/>
<path fill="none" d="M321.16,373.814c-2.481,0.416-3.392,4.481-3.392,4.481c-2.254,9.328,3.889,13.155,3.889,13.155
	c0.581,0.357,1.061,0.616,1.567,0.865c0.154,0.062,0.935,0.307,1.214-0.721c2.167-8.268,1.77-12.001,1.77-12.001
	C325.451,373.238,321.16,373.814,321.16,373.814z"/>
<path fill="none" d="M409.978,366.952c0.182-1.86-1.009-2.224-2.072-1.793c-1.032,0.414-2.223,1.489-2.223,1.489
	c-11.967,10.929-20.23,35.831-20.839,37.701c0,0.003-0.145,0.369,0.105,0.514c0.105,0.062,0.267,0.052,0.568-0.205
	c0,0-0.005,0.013-0.008,0.017C408.486,384.835,409.978,366.952,409.978,366.952z"/>
<path fill="none" d="M321.16,373.814c-2.481,0.416-3.392,4.481-3.392,4.481c-2.254,9.328,3.889,13.155,3.889,13.155
	c0.581,0.357,1.061,0.616,1.567,0.865c0.154,0.062,0.935,0.307,1.214-0.721c2.167-8.268,1.77-12.001,1.77-12.001
	C325.451,373.238,321.16,373.814,321.16,373.814z"/>
<path fill="none" d="M321.16,373.814c-2.481,0.416-3.392,4.481-3.392,4.481c-2.254,9.328,3.889,13.155,3.889,13.155
	c0.581,0.357,1.061,0.616,1.567,0.865c0.154,0.062,0.935,0.307,1.214-0.721c2.167-8.268,1.77-12.001,1.77-12.001
	C325.451,373.238,321.16,373.814,321.16,373.814z"/>
<path fill="none" d="M409.978,366.952c0.182-1.86-1.009-2.224-2.072-1.793c-1.032,0.414-2.223,1.489-2.223,1.489
	c-11.967,10.929-20.23,35.831-20.839,37.701c0,0.003-0.145,0.369,0.105,0.514c0.105,0.062,0.267,0.052,0.568-0.205
	c0,0-0.005,0.013-0.008,0.017C408.486,384.835,409.978,366.952,409.978,366.952z"/>
<path fill="none" d="M409.978,366.952c0.182-1.86-1.009-2.224-2.072-1.793c-1.032,0.414-2.223,1.489-2.223,1.489
	c-11.967,10.929-20.23,35.831-20.839,37.701c0,0.003-0.145,0.369,0.105,0.514c0.105,0.062,0.267,0.052,0.568-0.205
	c0,0-0.005,0.013-0.008,0.017C408.486,384.835,409.978,366.952,409.978,366.952z"/>
<path fill="none" d="M321.16,373.814c-2.481,0.416-3.392,4.481-3.392,4.481c-2.254,9.328,3.889,13.155,3.889,13.155
	c0.581,0.357,1.061,0.616,1.567,0.865c0.154,0.062,0.935,0.307,1.214-0.721c2.167-8.268,1.77-12.001,1.77-12.001
	C325.451,373.238,321.16,373.814,321.16,373.814z"/>
<path fill="none" d="M409.978,366.952c0.182-1.86-1.009-2.224-2.072-1.793c-1.032,0.414-2.223,1.489-2.223,1.489
	c-11.967,10.929-20.23,35.831-20.839,37.701c0,0.003-0.145,0.369,0.105,0.514c0.105,0.062,0.267,0.052,0.568-0.205
	c0,0-0.005,0.013-0.008,0.017C408.486,384.835,409.978,366.952,409.978,366.952z"/>
<path fill="none" d="M321.16,373.814c-2.481,0.416-3.392,4.481-3.392,4.481c-2.254,9.328,3.889,13.155,3.889,13.155
	c0.581,0.357,1.061,0.616,1.567,0.865c0.154,0.062,0.935,0.307,1.214-0.721c2.167-8.268,1.77-12.001,1.77-12.001
	C325.451,373.238,321.16,373.814,321.16,373.814z"/>
<path fill="none" d="M409.978,366.952c0.182-1.86-1.009-2.224-2.072-1.793c-1.032,0.414-2.223,1.489-2.223,1.489
	c-11.967,10.929-20.23,35.831-20.839,37.701c0,0.003-0.145,0.369,0.105,0.514c0.105,0.062,0.267,0.052,0.568-0.205
	c0,0-0.005,0.013-0.008,0.017C408.486,384.835,409.978,366.952,409.978,366.952z"/>
<path fill="none" d="M321.16,373.814c-2.481,0.416-3.392,4.481-3.392,4.481c-2.254,9.328,3.889,13.155,3.889,13.155
	c0.581,0.357,1.061,0.616,1.567,0.865c0.154,0.062,0.935,0.307,1.214-0.721c2.167-8.268,1.77-12.001,1.77-12.001
	C325.451,373.238,321.16,373.814,321.16,373.814z"/>
<path fill="none" d="M552.739,337.557c0.544-1.511-0.047-2.294-0.206-2.469c-1.616-1.491-3.002-2.105-4.235-2.621
	c-12.288-5.131-25.622,37.1-25.622,37.1c-3.334,9.864,3.204,10.42,3.204,10.42c5.803,0.369,14.371-9.32,16.029-11.881
	c1.661-2.563,4.159-10.487,4.159-10.487c1.915-6.428,4.19-13.183,6.682-20.067L552.739,337.557z"/>
<path fill="none" d="M321.16,373.814c-2.481,0.416-3.392,4.481-3.392,4.481c-2.254,9.328,3.889,13.155,3.889,13.155
	c0.581,0.357,1.061,0.616,1.567,0.865c0.154,0.062,0.935,0.307,1.214-0.721c2.167-8.268,1.77-12.001,1.77-12.001
	C325.451,373.238,321.16,373.814,321.16,373.814z"/>
<path fill="none" d="M409.978,366.952c0.182-1.86-1.009-2.224-2.072-1.793c-1.032,0.414-2.223,1.489-2.223,1.489
	c-11.967,10.929-20.23,35.831-20.839,37.701c0,0.003-0.145,0.369,0.105,0.514c0.105,0.062,0.267,0.052,0.568-0.205
	c0,0-0.005,0.013-0.008,0.017C408.486,384.835,409.978,366.952,409.978,366.952z"/>
<path fill="none" d="M552.533,335.089c-1.616-1.491-3.002-2.105-4.235-2.621c-12.288-5.131-25.622,37.1-25.622,37.1
	c-3.131,10.737,3.204,10.42,3.204,10.42c5.803,0.369,14.371-9.32,16.029-11.881c1.661-2.563,4.159-10.487,4.159-10.487
	c1.915-6.428,4.19-13.183,6.682-20.067l-0.011,0.005C553.361,335.929,552.692,335.263,552.533,335.089z"/>
<path fill="none" d="M409.978,366.952c0.182-1.86-1.009-2.224-2.072-1.793c-1.032,0.414-2.223,1.489-2.223,1.489
	c-11.967,10.929-20.23,35.831-20.839,37.701c0,0.003-0.145,0.369,0.105,0.514c0.105,0.062,0.267,0.052,0.568-0.205
	c0,0-0.005,0.013-0.008,0.017C408.486,384.835,409.978,366.952,409.978,366.952z"/>
<path fill="none" d="M321.16,373.814c-2.481,0.416-3.392,4.481-3.392,4.481c-2.254,9.328,3.889,13.155,3.889,13.155
	c0.581,0.357,1.061,0.616,1.567,0.865c0.154,0.062,0.935,0.307,1.214-0.721c2.167-8.268,1.77-12.001,1.77-12.001
	C325.451,373.238,321.16,373.814,321.16,373.814z"/>
<path fill="none" d="M552.533,335.089c-1.616-1.491-3.002-2.105-4.235-2.621c-12.288-5.131-25.622,37.1-25.622,37.1
	c-3.131,10.737,3.204,10.42,3.204,10.42c5.803,0.369,14.371-9.32,16.029-11.881c1.661-2.563,4.159-10.487,4.159-10.487
	c1.915-6.428,4.19-13.183,6.682-20.067l-0.011,0.005C553.361,335.929,552.692,335.263,552.533,335.089z"/>
<path fill="none" d="M409.978,366.952c0.182-1.86-1.009-2.224-2.072-1.793c-1.032,0.414-2.223,1.489-2.223,1.489
	c-11.967,10.929-20.23,35.831-20.839,37.701c0,0.003-0.145,0.369,0.105,0.514c0.105,0.062,0.267,0.052,0.568-0.205
	c0,0-0.005,0.013-0.008,0.017C408.486,384.835,409.978,366.952,409.978,366.952z"/>
<path fill="none" d="M552.533,335.089c-1.616-1.491-3.002-2.105-4.235-2.621c-12.288-5.131-25.622,37.1-25.622,37.1
	c-3.131,10.737,3.204,10.42,3.204,10.42c5.803,0.369,14.371-9.32,16.029-11.881c1.661-2.563,4.159-10.487,4.159-10.487
	c1.915-6.428,4.19-13.183,6.682-20.067l-0.011,0.005C553.361,335.929,552.692,335.263,552.533,335.089z"/>
<path fill="none" d="M321.16,373.814c-2.481,0.416-3.392,4.481-3.392,4.481c-2.254,9.328,3.889,13.155,3.889,13.155
	c0.581,0.357,1.061,0.616,1.567,0.865c0.154,0.062,0.935,0.307,1.214-0.721c2.167-8.268,1.77-12.001,1.77-12.001
	C325.451,373.238,321.16,373.814,321.16,373.814z"/>
<path fill="none" d="M409.978,366.952c0.182-1.86-1.009-2.224-2.072-1.793c-1.032,0.414-2.223,1.489-2.223,1.489
	c-11.967,10.929-20.23,35.831-20.839,37.701c0,0.003-0.145,0.369,0.105,0.514c0.105,0.062,0.267,0.052,0.568-0.205
	c0,0-0.005,0.013-0.008,0.017C408.486,384.835,409.978,366.952,409.978,366.952z"/>
<path fill="none" d="M552.533,335.089c-1.616-1.491-3.002-2.105-4.235-2.621c-12.288-5.131-25.622,37.1-25.622,37.1
	c-3.131,10.737,3.204,10.42,3.204,10.42c5.803,0.369,14.371-9.32,16.029-11.881c1.661-2.563,4.159-10.487,4.159-10.487
	c1.915-6.428,4.19-13.183,6.682-20.067l-0.011,0.005C553.361,335.929,552.692,335.263,552.533,335.089z"/>
<path fill="none" d="M321.16,373.814c-2.481,0.416-3.392,4.481-3.392,4.481c-2.254,9.328,3.889,13.155,3.889,13.155
	c0.581,0.357,1.061,0.616,1.567,0.865c0.154,0.062,0.935,0.307,1.214-0.721c2.167-8.268,1.77-12.001,1.77-12.001
	C325.451,373.238,321.16,373.814,321.16,373.814z"/>
<path fill="none" d="M321.16,373.814c-2.481,0.416-3.392,4.481-3.392,4.481c-2.254,9.328,3.889,13.155,3.889,13.155
	c0.581,0.357,1.061,0.616,1.567,0.865c0.154,0.062,0.935,0.307,1.214-0.721c2.167-8.268,1.77-12.001,1.77-12.001
	C325.451,373.238,321.16,373.814,321.16,373.814z"/>
<path fill="none" d="M409.978,366.952c0.182-1.86-1.009-2.224-2.072-1.793c-1.032,0.414-2.223,1.489-2.223,1.489
	c-11.967,10.929-20.23,35.831-20.839,37.701c0,0.003-0.145,0.369,0.105,0.514c0.105,0.062,0.267,0.052,0.568-0.205
	c0,0-0.005,0.013-0.008,0.017C408.486,384.835,409.978,366.952,409.978,366.952z"/>
<path fill="none" d="M552.533,335.089c-1.616-1.491-3.002-2.105-4.235-2.621c-12.288-5.131-25.622,37.1-25.622,37.1
	c-3.131,10.737,3.204,10.42,3.204,10.42c5.803,0.369,14.371-9.32,16.029-11.881c1.661-2.563,4.159-10.487,4.159-10.487
	c1.915-6.428,4.19-13.183,6.682-20.067l-0.011,0.005C553.361,335.929,552.692,335.263,552.533,335.089z"/>
<path fill="none" d="M606.123,323.138c-0.662-0.967-1.221,0.347-1.221,0.347H604.9c-5.53,14.883-10.55,23.895-12.285,26.827l0,0
	c0,0-0.643,1.162-0.232,2.094c3.8,8.345,15.1,5.792,15.1,5.792c11.91-3.471,9.449-15.349,9.449-15.349
	C615.577,337.557,610.008,328.813,606.123,323.138z"/>
<path fill="none" d="M552.533,335.089c-1.616-1.491-3.002-2.105-4.235-2.621c-12.288-5.131-25.622,37.1-25.622,37.1
	c-3.131,10.737,3.204,10.42,3.204,10.42c5.803,0.369,14.371-9.32,16.029-11.881c1.661-2.563,4.159-10.487,4.159-10.487
	c1.915-6.428,4.19-13.183,6.682-20.067l-0.011,0.005C553.361,335.929,552.692,335.263,552.533,335.089z"/>
<path fill="none" d="M409.978,366.952c0.182-1.86-1.009-2.224-2.072-1.793c-1.032,0.414-2.223,1.489-2.223,1.489
	c-11.967,10.929-20.23,35.831-20.839,37.701c0,0.003-0.145,0.369,0.105,0.514c0.105,0.062,0.267,0.052,0.568-0.205
	c0,0-0.005,0.013-0.008,0.017C408.486,384.835,409.978,366.952,409.978,366.952z"/>
<path fill="none" d="M321.16,373.814c-2.481,0.416-3.392,4.481-3.392,4.481c-2.254,9.328,3.889,13.155,3.889,13.155
	c0.581,0.357,1.061,0.616,1.567,0.865c0.154,0.062,0.935,0.307,1.214-0.721c2.167-8.268,1.77-12.001,1.77-12.001
	C325.451,373.238,321.16,373.814,321.16,373.814z"/>
<path fill="none" d="M606.123,323.138c-0.662-0.967-1.221,0.347-1.221,0.347H604.9c-5.53,14.883-10.55,23.895-12.285,26.827l0,0
	c0,0-0.643,1.162-0.232,2.094c3.8,8.345,15.1,5.792,15.1,5.792c11.91-3.471,9.449-15.349,9.449-15.349
	C615.577,337.557,610.008,328.813,606.123,323.138z"/>
<path fill="none" d="M409.978,366.952c0.182-1.86-1.009-2.224-2.072-1.793c-1.032,0.414-2.223,1.489-2.223,1.489
	c-11.967,10.929-20.23,35.831-20.839,37.701c0,0.003-0.145,0.369,0.105,0.514c0.105,0.062,0.267,0.052,0.568-0.205
	c0,0-0.005,0.013-0.008,0.017C408.486,384.835,409.978,366.952,409.978,366.952z"/>
<path fill="none" d="M552.533,335.089c-1.616-1.491-3.002-2.105-4.235-2.621c-12.288-5.131-25.622,37.1-25.622,37.1
	c-3.131,10.737,3.204,10.42,3.204,10.42c5.803,0.369,14.371-9.32,16.029-11.881c1.661-2.563,4.159-10.487,4.159-10.487
	c1.915-6.428,4.19-13.183,6.682-20.067l-0.011,0.005C553.361,335.929,552.692,335.263,552.533,335.089z"/>
<path fill="none" d="M321.16,373.814c-2.481,0.416-3.392,4.481-3.392,4.481c-2.254,9.328,3.889,13.155,3.889,13.155
	c0.581,0.357,1.061,0.616,1.567,0.865c0.154,0.062,0.935,0.307,1.214-0.721c2.167-8.268,1.77-12.001,1.77-12.001
	C325.451,373.238,321.16,373.814,321.16,373.814z"/>
<path fill="none" d="M606.123,323.138c-0.662-0.967-1.221,0.347-1.221,0.347H604.9c-5.53,14.883-10.55,23.895-12.285,26.827l0,0
	c0,0-0.643,1.162-0.232,2.094c3.8,8.345,15.1,5.792,15.1,5.792c11.91-3.471,9.449-15.349,9.449-15.349
	C615.577,337.557,610.008,328.813,606.123,323.138z"/>
<g>
	<path d="M552.533,335.089c-1.616-1.491-3.002-2.105-4.235-2.621c-12.288-5.131-25.622,37.1-25.622,37.1
		c-3.131,10.737,3.204,10.42,3.204,10.42c5.803,0.369,14.371-9.32,16.029-11.881c1.661-2.563,4.159-10.487,4.159-10.487
		c1.915-6.428,4.19-13.183,6.682-20.067l-0.011,0.005C553.361,335.929,552.692,335.263,552.533,335.089z"/>
	<path d="M409.978,366.952c0.182-1.86-1.009-2.224-2.072-1.793c-1.032,0.414-2.223,1.489-2.223,1.489
		c-11.967,10.929-20.23,35.831-20.839,37.701c0,0.003-0.145,0.369,0.105,0.514c0.105,0.062,0.267,0.052,0.568-0.205
		c0,0-0.005,0.013-0.008,0.017C408.486,384.835,409.978,366.952,409.978,366.952z"/>
	<path d="M321.16,373.814c-2.481,0.416-3.392,4.481-3.392,4.481c-2.254,9.328,3.889,13.155,3.889,13.155
		c0.581,0.357,1.061,0.616,1.567,0.865c0.154,0.062,0.935,0.307,1.214-0.721c2.167-8.268,1.77-12.001,1.77-12.001
		C325.451,373.238,321.16,373.814,321.16,373.814z"/>
	<path d="M606.123,323.138c-0.662-0.967-1.221,0.347-1.221,0.347H604.9c-5.53,14.883-10.55,23.895-12.285,26.827
		c0,0-0.643,1.162-0.232,2.094c3.8,8.345,15.1,5.792,15.1,5.792c11.91-3.471,9.449-15.349,9.449-15.349
		C615.577,337.557,610.008,328.813,606.123,323.138z"/>
	<path d="M657.361,348.905c-0.704,0-1.199,0.071-1.482,0.141v3.319h1.272c1.481,0,2.683-0.494,2.683-1.695
		C659.833,349.612,659.055,348.905,657.361,348.905z"/>
	<path d="M657.644,343.611h-0.07c-5.013,0-8.895,4.164-8.895,9.247c0,5.154,3.882,9.247,9.036,9.247
		c5.011,0.07,8.823-4.093,8.823-9.177C666.538,347.775,662.725,343.611,657.644,343.611z M660.397,358.859
		c-0.353-0.424-0.563-1.412-0.918-2.824c-0.212-1.201-0.917-1.765-2.4-1.765h-1.271v4.589h-2.682v-11.577
		c1.058-0.142,2.539-0.353,4.447-0.353c2.188,0,3.175,0.353,3.952,0.918c0.706,0.494,1.199,1.341,1.199,2.47
		c0,1.413-1.058,2.33-2.399,2.754v0.142c1.13,0.353,1.694,1.27,2.047,2.823c0.352,1.764,0.635,2.4,0.847,2.824H660.397z"/>
	<path d="M784.127,517.58V142.592c0-21.738-19.763-28.655-19.763-28.655l-342.75-82.922c-26.063-5.435-48.046,0-48.046,0
		L35.624,114.191l-6.825,1.651c0,0-18.587,6.507-19.708,26.73c-0.225,2.297-0.135,3.759-0.135,3.759L8.829,512.145
		c0,28.657,22.854,32.609,22.854,32.609l342.379,80.45c22.726,4.448,47.552,0,47.552,0l339.292-80.45
		C784.62,540.308,784.127,517.58,784.127,517.58z M516.346,84.19c0.005,0.059,0.01,0.117,0.015,0.176
		c-0.006-0.061-0.01-0.112-0.016-0.176H516.346z M503.563,216.471L503.563,216.471l10.273-67.815
		c0.006-0.039,0.446-2.624,2.698-2.624h26.662c2.298,0,2.737,2.603,2.737,2.603l10.515,61.828c0.463,2.734-2.25,3.039-2.25,3.039
		v0.006c-5.573,0.53-11.077,1.075-16.509,1.636v-0.004c-2.178,0.224-2.663-2.029-2.663-2.029v0.001l-0.863-5.68
		c-1.223-7.883-2.446-18.682-3.548-31.098l-0.001,0.001c-0.18-1.998-0.563-2.022-0.59-2.022c-0.373,0-0.52,1.009-0.575,1.6
		c-1.121,15.231-1.764,20.939-3.048,31.518l-0.889,6.585c-0.323,2.375-2.553,2.702-2.553,2.702l0.004,0.005
		c-5.84,0.649-11.593,1.315-17.264,1.998v-0.006C503.221,219.01,503.563,216.471,503.563,216.471z M465.984,148.493
		c0.069-0.559,0.453-2.444,2.579-2.444l-0.007-0.017h18.977l-0.007,0.017c2.152,0,2.522,1.935,2.583,2.467v68.827
		c0,3.374-2.551,3.648-2.551,3.648v0.006c-6.578,0.861-13.047,1.743-19.391,2.646l-0.003-0.006c-2.124,0.301-2.18-2.091-2.18-2.091
		V148.493z M386.056,148.64c0,0,0.072-2.513,2.665-2.608h28.592c19.509,0,27.48,1.98,32.726,8.582
		c5.663,6.822,7.131,15.404,7.131,42.252v26.102c0,2.24-2.193,2.597-2.193,2.597l0.004,0.006
		c-6.656,1.002-13.193,2.024-19.582,3.068l-0.001-0.002c-2.189,0.356-2.351-2.395-2.351-2.395v-37.519
		c0-19.366-2.937-23.326-16.991-23.326h-3.687c-2.194,0-2.188,2.497-2.188,2.497v62.389c0,2.774-2.507,3.155-2.507,3.155
		l-0.002,0.004c-6.527,1.196-12.896,2.41-19.115,3.641v-0.004c-2.372,0.466-2.501-2.548-2.501-2.548V148.64z M313.263,148.64
		c0,0,0.015-2.503,2.582-2.608h59.415c0,0,2.825,0.059,2.825,2.608v18.403c0,2.537-2.825,2.536-2.825,2.536H339.88
		c-2.533,0-2.491,2.626-2.491,2.626v32.235c0,0-0.003,2.33,2.371,2.33h33.033c0,0,2.986,0.085,2.986,2.86v15.669
		c0,2.803-2.986,2.818-2.986,2.818H339.76c-2.354,0-2.371,2.235-2.371,2.235v15.239c0,2.685-2.494,3.342-2.494,3.342l0.004,0.002
		c-6.623,1.628-13.019,3.265-19.197,4.907l-0.001-0.004c-2.391,0.632-2.438-2.169-2.438-2.169V148.64z M203.548,148.64
		c0,0,0.103-2.607,2.597-2.607l-0.001-0.001h32.316c0,0,2.219,0.003,2.634,2.606l7.347,46.249c1.561,9.415,2.759,19.029,4.1,32.9
		v0.004c0.05,0.516,0.101,1.047,0.152,1.575c0.086,0.539,0.207,0.781,0.354-0.242c0.047-0.438,0.097-0.898,0.143-1.32
		c0.001-0.006,0.001-0.01,0.001-0.016c1.628-14.953,2.306-20.745,4.269-32.9l7.348-46.249c0.004-0.02,0.439-2.606,2.748-2.606
		h32.631c0,0,2.586,0.044,2.586,2.608v105.848c0,3.021-2.816,3.674-2.816,3.674l0.004,0.003c-5.906,1.678-11.591,3.355-17.057,5.024
		l0.001-0.005c-3.149,0.956-3.209-2.823-3.209-2.823v-43.909c0-6.578,0.279-19.262,0.65-30.141
		c-0.025-0.005-0.059-0.012-0.059-0.012s0.193-2.762-0.505-2.809c0,0-0.893-0.231-1.162,2.606l-0.026-0.037
		c-1.997,11.738-3.433,20.243-4.981,28.852l-8.929,51.018c-0.57,3.249-3.296,4.154-3.296,4.154l-0.003,0.005
		c-5.095,1.716-9.964,3.415-14.603,5.089l-0.001-0.003c-3.226,1.154-4.159-2.62-4.167-2.65l-10.329-59.593
		c-0.838-5.723-1.888-11.444-2.936-17.165l-1.678-10.123c-0.053-0.295-0.098-0.579-0.15-0.872c-0.367-1.402-0.936-1.281-0.936-1.281
		c-0.57,0.038-0.546,1.869-0.517,2.545l0.011,0.235c0.001,0.005,0.002,0.029,0.002,0.029l0.123,2.645
		c0.209,4.841,0.42,16.285,0.42,23.987v65.599c0,4.289-3.449,5.7-3.449,5.7l0.005,0.007c-5.901,2.409-11.313,4.733-16.206,6.934
		l-0.001-0.003c-3.336,1.486-3.426-2.925-3.426-2.925V148.64z M248.94,545.375c0.052,6.949-3.825,6.937-3.825,6.937
		c-17.289,0.357-27.535-9.752-27.535-9.752c-6.685-5.775-4.962-17.337-4.962-17.337c5.923-40.96,27.535-91.018,27.535-91.018
		c22.927-57.017,59.945-114.281,70.62-130.304c0.357-0.534,0.699-1.047,0.362-1.533c-0.232-0.332-0.648-0.272-0.895-0.197
		c-100.776,38.833-131.091,72.624-131.091,72.624c-5.046,4.675-8.071,1.459-9.55-2.85c-1.081-3.154-1.067-6.984-1.067-6.984
		c-0.044-19.214,6.588-30.876,10.353-37.967c3.768-7.091,12.513-12.582,12.513-12.582c121.442-66.101,358.218-90.047,358.218-90.047
		c9.277-0.957,11.707,0.694,11.707,0.694c3.785,2.364,6.128,5.32,6.128,5.32c2.243,3.414-3.7,4.4-3.7,4.4
		c-110.389,18.261-196.773,45.407-222.859,56.146c-1.622,0.668-2.804,2.085-3.097,2.503
		c-36.91,57.272-71.404,154.214-71.404,154.214C248.18,500.515,248.94,545.375,248.94,545.375z M633.508,358.542
		c-5.159,14.477-25.505,18.145-25.505,18.145c-15.903,2.912-22.785-6.889-24.467-9.834c-0.388-0.81-1.131,0-1.131,0l-0.003-0.002
		c-10.518,12.223-16.559,18.234-16.559,18.234c-7.751,7.169-14.35,7.5-14.35,7.5c-5.054,0.312-7.43-3.775-8.274-5.912l-0.003,0.005
		c-0.48-1.503-1.811,0-1.811,0l-0.001-0.005c-16.615,17.122-27.678,16.9-27.678,16.9c-5.16-0.197-7.519-3.788-8.883-8.43
		l-0.005,0.002c-0.428-1.269-1.163-0.499-1.465-0.1c-0.04,0.057-0.08,0.115-0.12,0.172c-0.01,0.015-0.019,0.025-0.019,0.025
		c-5.487,7.755-11.306,13.367-11.306,13.367c-8.258,7.667-15.626,5.907-15.626,5.907c-5.745-0.898-7.574-4.351-7.98-4.984
		c-6.609-10.228,15.721-55.116,15.721-55.116c1.845-3.876,1.046-5.033,1.046-5.033c-3.534-1.763-15.668,8.463-15.668,8.463
		c-7.767,6.827-11.837,13.22-15.605,23.094c-0.727,1.905-0.986,3.122-0.986,3.122c-4.476,19.254-8.621,34.512-8.621,34.512
		c-1.598,5.845-6.081,8.897-6.081,8.897c-11.132,7.879-17.673,6.583-17.673,6.583c-3.364-0.698-0.613-6.702-0.613-6.702
		c4.073-9.722,7.454-19.773,10.491-29.138c1.285-3.965-1.001-0.125-1.001-0.125v-0.007c-15.972,26.468-35.994,45.183-35.994,45.183
		c-8.266,7.468-19.06,3.982-19.663,3.788c-3.84-1.002-6.492-4.67-7.73-8.198l-0.002,0.002c-0.367-0.98-1.204,0.085-1.204,0.085
		c-9.64,12.372-20.067,21.795-20.067,21.795c-6.025,5.493-12.118,5.625-12.118,5.625c-7.667,0.145-7.242-11.208-7.242-11.208
		c1.179-19.793,17.186-44.208,17.186-44.208c0.781-1.157-0.171-2.311-0.171-2.311c-0.469-0.608-1.512-0.434-1.512-0.434
		c-3.607,0.79-6.785,1.154-9.525,1.267h0.006c-1.332,0.075-1.936,1.606-1.936,1.606h-0.002
		c-19.319,50.489-38.002,64.597-38.002,64.597c-5.782,4.782-10.13,4.189-10.13,4.189c-13.902-1.444-12.4-14.881-12.4-14.881
		c0.037-3.212,3.481-4.189,3.481-4.189c27.499-10.113,43.846-47.098,43.846-47.098c0.591-1.269,1.135-2.481,1.656-3.67
		c0.951-2.267-0.522-3.074-0.522-3.074l0.013-0.012c-20.581-12.068-8.859-37.165-8.859-37.165
		c4.104-8.522,11.727-9.969,11.727-9.969c5.77-1.588,10.129,0.726,10.129,0.726c12.374,5.199,5.639,31.928,5.639,31.928
		c-0.137,0.678-0.196,0.975-0.259,1.237c-0.066,0.519,0.036,0.975,0.713,0.955c8.464-0.76,14.816-5.226,14.816-5.226
		c2.836-1.883,4.108-0.421,5.168,1.01c1.062,1.434,3.223,7.949,3.706,10.113c0.485,2.167-1.01,4.912-1.01,4.912
		c-7.927,13.003-15.761,28.752-15.761,28.752c-0.694,1.521-1.178,2.82-1.534,3.972c-0.299,1.142-1.277,5.555,1.464,6.064
		c0,0,2.253,0.404,5.933-2.675c0,0,8.701-7.493,13.715-13.188c0,0,1.116-1.087,1.196-3.246l0.002,0.003
		c0.335-16.733,7.807-34.25,7.807-34.25c14.741-31.841,32.324-36.1,32.324-36.1c7.616-2.94,13.183,0,13.183,0
		c4.299,1.937,4.403,6.897,4.403,6.897c-0.105,16.122-10.897,31.888-10.897,31.888c-9.205,14.098-19.587,22.471-24.382,26.425
		c0,0-0.77,0.691-0.466,1.543c1.194,3.451,2.483,4.329,2.483,4.329c3.423,2.431,10.562-5.274,10.562-5.274
		c20.566-20.98,37.541-53.551,43.288-65.49c1.442-2.995,1.689-4.174,1.701-4.214c0.628-2.366,1.072-6.767,1.072-6.767
		c0.271-4.371,12.785-8.448,12.785-8.448c6.519-1.73,4.287,8.822,4.287,8.822c-0.595,2.808-0.54,2.279-1.395,5.904l-0.335,1.414
		c0,0-0.495,2.079,0.337,0.768c6.866-9.602,16.142-17.02,16.142-17.02c12.026-8.927,19.547-4.027,19.547-4.027
		c8.994,4.698,0.114,25.029,0.114,25.029c-6.409,15.654-9.026,24.605-9.026,24.605c-3.48,11.013,0.865,11.382,0.865,11.382
		c3.976,0.711,11.162-7.842,14.426-12.118c0.954-1.227,1.098-2.98,1.098-2.98h0.002c0.692-6.922,2.04-12.507,2.04-12.507
		c11.281-40.777,36.182-48.597,36.182-48.597c7.135-2.419,13.23,0.322,16.201,2.91l0.001-0.005c0,0,0.967,0.84,1.548-0.601h0.001
		c17.112-42.54,38.815-84.159,38.815-84.159c3.295-6.282,7.75-8.488,7.75-8.488c16.139-8.744,24.591-2.889,24.591-2.889
		c3.598,1.869-4.786,11.481-4.786,11.481c-33.104,36.527-66.474,128.801-66.474,128.801c-2.23,6.495,0.783,7.066,0.783,7.066
		c3.652,1.107,12.395-9.547,12.395-9.547c9.702-11.16,21.574-39.635,25.018-49.283c0.459-1.292,0.022-2.531,0.022-2.531l0.013-0.002
		c-2.926-9.231-0.466-16.202-0.466-16.202c4.91-14.836,16.763-12.412,16.763-12.412c11.268,2.077,4.224,26.236,4.224,26.236
		c-0.938,3.069-0.239,4.872-0.239,4.872c3.538,9.081,13.421,29.841,13.421,29.841C636.002,350.648,633.508,358.542,633.508,358.542z
		 M657.644,364.505c-6.635,0-11.93-5.151-11.93-11.647c0-6.494,5.295-11.576,11.93-11.576h0.071c6.564,0,11.789,5.082,11.789,11.576
		C669.504,359.354,664.279,364.505,657.644,364.505z"/>
</g>
</svg>
